<svg width="92" height="93" viewBox="0 0 92 93" fill="none" xmlns="http://www.w3.org/2000/svg">
<path d="M46 5.8125C37.6156 5.8225 29.5774 9.19384 23.6487 15.187C17.72 21.1801 14.3849 29.3057 14.375 37.7812C14.365 44.7075 16.6031 51.4458 20.746 56.9625C20.746 56.9625 21.6085 58.1105 21.7494 58.2761L46 87.1875L70.2622 58.2616C70.3887 58.1076 71.254 56.9625 71.254 56.9625L71.2569 56.9538C75.3978 51.4395 77.6349 44.7043 77.625 37.7812C77.6151 29.3057 74.2801 21.1801 68.3514 15.187C62.4227 9.19384 54.3845 5.8225 46 5.8125ZM46 49.4062C43.7255 49.4062 41.5021 48.7245 39.611 47.4471C37.7198 46.1697 36.2458 44.3541 35.3754 42.2299C34.505 40.1058 34.2773 37.7684 34.721 35.5133C35.1647 33.2583 36.26 31.1869 37.8683 29.5611C39.4766 27.9353 41.5257 26.8282 43.7565 26.3796C45.9873 25.9311 48.2995 26.1613 50.4009 27.0411C52.5022 27.921 54.2983 29.411 55.5619 31.3227C56.8256 33.2345 57.5 35.482 57.5 37.7812C57.4962 40.8632 56.2834 43.8178 54.1276 45.9971C51.9717 48.1764 49.0489 49.4024 46 49.4062Z" fill="#438EFF"/>
</svg>
