<svg width="42" height="42" viewBox="0 0 42 42" fill="none" xmlns="http://www.w3.org/2000/svg">
<path fill-rule="evenodd" clip-rule="evenodd" d="M13.125 8.3125C13.125 7.92925 17.0765 5.25 21 5.25C24.9235 5.25 28.875 7.93012 28.875 8.3125C28.875 9.6775 28.7298 10.486 28.6073 10.9261C28.5259 11.2149 28.2555 11.375 27.9554 11.375H14.0446C13.7445 11.375 13.4741 11.2149 13.3928 10.9261C13.2703 10.486 13.125 9.6775 13.125 8.3125ZM19.6875 7.875C19.4554 7.875 19.2329 7.96719 19.0688 8.13128C18.9047 8.29538 18.8125 8.51794 18.8125 8.75C18.8125 8.98206 18.9047 9.20462 19.0688 9.36872C19.2329 9.53281 19.4554 9.625 19.6875 9.625H22.3125C22.5446 9.625 22.7671 9.53281 22.9312 9.36872C23.0953 9.20462 23.1875 8.98206 23.1875 8.75C23.1875 8.51794 23.0953 8.29538 22.9312 8.13128C22.7671 7.96719 22.5446 7.875 22.3125 7.875H19.6875ZM14.0333 16.8158C11.1195 15.9145 11.8545 14.3045 12.9658 13.125H29.2775C30.1665 14.2607 30.6434 15.7929 27.9563 16.7099C28.0661 17.6846 27.9698 18.6716 27.6737 19.6068C27.3776 20.542 26.8882 21.4045 26.2373 22.1383C25.5864 22.8722 24.7886 23.4611 23.8955 23.8668C23.0024 24.2726 22.034 24.486 21.0531 24.4934C20.0721 24.5008 19.1006 24.302 18.2015 23.9098C17.3024 23.5176 16.4957 22.9408 15.8339 22.2168C15.172 21.4928 14.6697 20.6378 14.3595 19.7072C14.0493 18.7766 13.9381 17.7912 14.0333 16.8149V16.8158ZM20.762 17.5C23.0738 17.5 24.8658 17.3775 26.2395 17.164C26.2847 17.8774 26.1837 18.5925 25.9427 19.2655C25.7017 19.9385 25.3258 20.5552 24.8381 21.0778C24.3504 21.6003 23.761 22.0178 23.1063 22.3046C22.4515 22.5914 21.745 22.7415 21.0302 22.7456C20.3154 22.7497 19.6073 22.6078 18.9492 22.3286C18.2912 22.0493 17.6971 21.6387 17.2034 21.1217C16.7097 20.6048 16.3267 19.9925 16.078 19.3223C15.8293 18.6521 15.7201 17.9382 15.757 17.2244C17.0371 17.4011 18.6778 17.5 20.762 17.5ZM28.3649 30.275C27.5734 29.0402 26.484 28.0243 25.197 27.321C23.91 26.6176 22.4667 26.2493 21 26.25C19.5327 26.2491 18.0888 26.6174 16.8013 27.3211C15.5137 28.0248 14.424 29.0413 13.6325 30.2768C13.3387 29.8243 12.8876 29.497 12.3664 29.358L10.6759 28.9056C10.1156 28.7554 9.51852 28.8339 9.01607 29.1239C8.51363 29.4138 8.14693 29.8915 7.99663 30.4517L7.31763 32.9875C7.24326 33.265 7.22429 33.5544 7.26179 33.8393C7.29929 34.1241 7.39253 34.3988 7.53618 34.6475C7.67984 34.8963 7.87109 35.1144 8.09903 35.2893C8.32697 35.4642 8.58712 35.5924 8.86463 35.6668L10.5543 36.12C10.8385 36.1966 11.1352 36.2148 11.4267 36.1736C11.7181 36.1324 11.9982 36.0326 12.25 35.8803C12.2507 36.1123 12.3436 36.3346 12.5081 36.4982C12.6727 36.6618 12.8956 36.7533 13.1276 36.7526C13.3597 36.7519 13.582 36.6591 13.7456 36.4945C13.9092 36.3299 14.0007 36.1071 14 35.875V35C14 34.6666 14.0236 34.3385 14.0683 34.0174L18.6218 35.238C18.8331 35.6904 19.1691 36.0732 19.5904 36.3413C20.0116 36.6095 20.5006 36.7519 21 36.7519C21.4994 36.7519 21.9884 36.6095 22.4096 36.3413C22.8309 36.0732 23.1669 35.6904 23.3783 35.238L27.9318 34.0174C27.9764 34.3385 28 34.6666 28 35V35.875C27.9988 36.1071 28.0899 36.3301 28.2532 36.495C28.4165 36.6599 28.6386 36.7532 28.8706 36.7544C29.1027 36.7555 29.3257 36.6645 29.4906 36.5012C29.6555 36.3379 29.7488 36.1158 29.75 35.8837C30.24 36.1777 30.8455 36.2801 31.4414 36.12L33.1319 35.6676C33.4094 35.5933 33.6695 35.465 33.8975 35.2902C34.1254 35.1153 34.3167 34.8972 34.4603 34.6484C34.604 34.3996 34.6972 34.125 34.7347 33.8401C34.7722 33.5553 34.7532 33.2659 34.6789 32.9884L33.999 30.4526C33.8487 29.8923 33.482 29.4147 32.9796 29.1247C32.4771 28.8348 31.8801 28.7563 31.3197 28.9065L29.6293 29.3589C29.1092 29.4973 28.6588 29.8242 28.3649 30.275ZM14.5276 32.3286C15.0003 31.1855 15.7671 30.1879 16.7503 29.4371C17.7334 28.6863 18.8977 28.2092 20.125 28.0543V31.6496C19.7329 31.7887 19.3793 32.0188 19.0934 32.3211C18.8074 32.6233 18.5972 32.989 18.48 33.3883L14.5276 32.3295V32.3286ZM27.4724 32.3286C26.9996 31.1855 26.2328 30.188 25.2496 29.4372C24.2665 28.6865 23.1022 28.2093 21.875 28.0543V31.6496C22.666 31.9296 23.2838 32.5771 23.52 33.3883L27.4724 32.3295V32.3286ZM21 35C21.2321 35 21.4546 34.9078 21.6187 34.7437C21.7828 34.5796 21.875 34.3571 21.875 34.125C21.875 33.8929 21.7828 33.6704 21.6187 33.5063C21.4546 33.3422 21.2321 33.25 21 33.25C20.7679 33.25 20.5454 33.3422 20.3813 33.5063C20.2172 33.6704 20.125 33.8929 20.125 34.125C20.125 34.3571 20.2172 34.5796 20.3813 34.7437C20.5454 34.9078 20.7679 35 21 35Z" fill="#BBD1F3"/>
</svg>
