<svg width="32" height="32" viewBox="0 0 32 32" fill="none" xmlns="http://www.w3.org/2000/svg">
<path d="M17.3333 12H24.6667L17.3333 4.66667V12ZM7.99999 2.66667H18.6667L26.6667 10.6667V26.6667C26.6667 27.3739 26.3857 28.0522 25.8856 28.5523C25.3855 29.0524 24.7072 29.3333 24 29.3333H7.99999C7.29275 29.3333 6.61447 29.0524 6.11438 28.5523C5.61428 28.0522 5.33333 27.3739 5.33333 26.6667V5.33334C5.33333 3.85334 6.51999 2.66667 7.99999 2.66667ZM9.33333 26.6667H12V18.6667H9.33333V26.6667ZM14.6667 26.6667H17.3333V16H14.6667V26.6667ZM20 26.6667H22.6667V21.3333H20V26.6667Z" fill="#BBD1F3"/>
</svg>
