<svg width="476" height="140" viewBox="0 0 476 140" fill="none" xmlns="http://www.w3.org/2000/svg">
<rect width="476" height="140" rx="10" fill="#99C1FF"/>
<g opacity="0.1">
<mask id="mask0_21_1095" style="mask-type:alpha" maskUnits="userSpaceOnUse" x="0" y="0" width="476" height="140">
<rect width="476" height="140" rx="30" fill="#E7F5FF"/>
</mask>
<g mask="url(#mask0_21_1095)">
</g>
<mask id="mask1_21_1095" style="mask-type:alpha" maskUnits="userSpaceOnUse" x="0" y="0" width="476" height="140">
<rect width="476" height="140" rx="30" fill="white"/>
</mask>
<g mask="url(#mask1_21_1095)">
<path opacity="0.7" d="M-123.539 70.9216C-121.938 69.9486 -120.352 68.9573 -118.766 68.0027C-116.813 66.8094 -114.845 65.6161 -112.906 64.4045C-105.328 59.7232 -99.0127 55.8863 -93.0353 52.3065C-89.2903 50.0485 -85.1487 48.2861 -80.7575 46.4136C-73.8402 43.4763 -66.7026 40.4472 -61.2686 35.2703C-58.3754 32.5166 -56.0696 29.4875 -54.2044 25.9995C-51.884 21.667 -50.7384 17.3528 -49.5048 12.7817C-47.9921 7.14576 -46.4353 1.30791 -42.4846 -4.71353C-35.8023 -14.9206 -24.6994 -22.4657 -14.2133 -23.916C-13.009 -24.0813 -11.5844 -24.2648 -10.2039 -24.375C-0.202408 -25.1644 7.8017 -23.9895 15.5561 -22.8329C26.9822 -21.144 37.8942 -19.5652 53.3737 -24.8339H49.8343C36.2199 -20.9053 26.1597 -22.3556 15.6589 -23.916C13.4854 -24.2281 11.2971 -24.5586 9.03535 -24.8339H-15.1973C-25.7715 -23.0532 -36.4192 -15.6916 -43.1602 -5.39277C-47.199 0.775526 -48.7851 6.70517 -50.3272 12.4329C-51.5315 16.9306 -52.677 21.1897 -54.924 25.3937C-56.7305 28.7899 -58.9922 31.7272 -61.7973 34.4074C-67.1138 39.4743 -74.1927 42.4666 -81.0365 45.3856C-85.2515 47.1846 -89.6134 49.0388 -93.4172 51.3152C-99.3946 54.895 -105.71 58.7502 -113.288 63.4315C-115.227 64.6248 -117.18 65.8181 -119.148 67.0297C-120.602 67.9292 -122.07 68.8104 -123.539 69.7283V70.9216Z" fill="white"/>
<path opacity="0.7" d="M-123.541 81.3122C-117.329 77.3653 -110.969 73.7487 -104.728 70.2056L-100.88 68.021C-94.9318 64.6248 -88.5579 61.0817 -81.3909 57.1898C-77.7193 55.1887 -73.7246 53.6283 -69.4802 51.9761C-62.7392 49.3509 -55.7778 46.6339 -50.2998 42.026C-47.4653 39.6395 -45.0714 36.9776 -43.0153 33.8934C-40.4305 30.0199 -38.9031 26.128 -37.2876 21.9974C-35.3637 17.0775 -33.381 12.0106 -29.4156 6.7786C-22.469 -2.38206 -11.8213 -9.28468 -1.64361 -11.2123C-0.439323 -11.4326 0.911835 -11.6896 2.20424 -11.8732C11.7945 -13.2317 19.5049 -13.1766 26.9802 -13.1215C40.0218 -13.0297 52.3437 -12.9563 72.2585 -20.5014C76.0035 -21.9334 79.6311 -23.402 83.1264 -24.8339H80.336C77.619 -23.7325 74.8727 -22.631 72.0088 -21.5478C52.2115 -14.0394 39.963 -14.1312 26.9802 -14.223C19.4902 -14.2781 11.7357 -14.3331 2.10143 -12.9563C0.794342 -12.7727 -0.571503 -12.5157 -1.77579 -12.277C-12.1297 -10.3127 -22.9683 -3.29996 -30.0472 6.02592C-34.1006 11.3681 -36.1127 16.5267 -38.066 21.5018C-39.6521 25.5772 -41.1648 29.4141 -43.6762 33.1775C-45.6882 36.1882 -48.0087 38.7767 -50.7844 41.1081C-56.1596 45.6242 -63.0623 48.3228 -69.7446 50.9297C-73.8127 52.5268 -78.0277 54.1607 -81.7434 56.1801C-88.9104 60.072 -95.299 63.6334 -101.247 67.0113L-105.095 69.1959C-111.219 72.6656 -117.461 76.2087 -123.556 80.0822V81.3122H-123.541Z" fill="white"/>
<path opacity="0.7" d="M-123.541 92.6393C-113.598 84.4883 -102.319 78.6137 -91.363 72.9411L-88.8516 71.6377C-83.1974 68.7004 -76.9409 65.5612 -69.7446 62.0731C-66.1464 60.3291 -62.2545 58.9523 -58.1423 57.502C-51.5922 55.1889 -44.8364 52.8023 -39.3143 48.7819C-36.5239 46.7625 -34.0713 44.4678 -31.8095 41.7875C-28.9163 38.3545 -26.9924 34.8665 -24.951 31.1582C-22.6452 26.9909 -20.2807 22.6768 -16.3447 18.2525C-9.13371 10.175 1.05869 3.89651 10.9426 1.49161L11.442 1.3631C12.5288 1.10609 13.5862 0.830721 14.629 0.610424C24.2192 -1.40896 31.9442 -2.5288 39.4196 -3.63028C51.6387 -5.41101 63.1823 -7.09995 81.6872 -12.3687L82.9502 -12.7359C104.069 -18.7573 120.738 -23.512 142.401 -16.4075C149.803 -13.9659 157.175 -9.70679 164.959 -5.20907C169.776 -2.41865 174.77 0.46356 179.763 2.86846C190.47 7.99036 201.029 10.1382 212.073 9.38556C228.228 8.30244 237.495 0.298338 247.306 -8.16472C253.21 -13.2683 259.305 -18.537 267.177 -22.4473C268.983 -23.3468 270.79 -24.0628 272.523 -24.5952C272.89 -24.7053 273.242 -24.7787 273.595 -24.8889H270.173C269.086 -24.4667 267.984 -24.0077 266.868 -23.457C258.894 -19.51 252.755 -14.2045 246.821 -9.06426C237.114 -0.674637 227.949 7.23767 212.044 8.30244C201.132 9.03676 190.69 6.92559 180.086 1.84041C175.122 -0.564491 170.144 -3.42834 165.341 -6.21877C157.513 -10.7348 150.126 -15.0123 142.636 -17.4906C120.768 -24.6686 104.011 -19.8771 82.774 -13.819L81.5109 -13.4518C63.0501 -8.18307 51.5213 -6.5125 39.3315 -4.73176C31.8414 -3.59357 24.1017 -2.47373 14.4821 -0.435986C13.4393 -0.215689 12.3672 0.0413246 11.2657 0.316696L10.7664 0.445202C0.73558 2.90518 -9.61835 9.25706 -16.9322 17.4631C-20.9416 21.9608 -23.3502 26.33 -25.6853 30.5524C-27.6973 34.2056 -29.6066 37.6569 -32.4264 41.0165C-34.644 43.6417 -37.0379 45.8813 -39.7696 47.864C-45.1889 51.811 -51.9006 54.1792 -58.392 56.4739C-62.3426 57.8691 -66.4401 59.3194 -70.0677 61.0818C-77.2787 64.5698 -83.5351 67.709 -89.2041 70.6463L-91.7008 71.9497C-102.525 77.5673 -113.657 83.3501 -123.556 91.3358V92.6393H-123.541Z" fill="white"/>
<path opacity="0.7" d="M-123.539 109.014C-120.132 104.462 -116.96 100.79 -113.655 97.5957C-103.286 87.6273 -90.5827 81.6977 -78.3049 75.9516L-76.8362 75.2724C-71.3729 72.7206 -65.2486 70.0036 -58.111 66.9745C-54.5716 65.4692 -50.7825 64.2759 -46.7878 63.0276C-40.4579 61.0265 -33.8931 58.9704 -28.3416 55.5558C-25.6246 53.8853 -23.0986 51.9577 -20.6312 49.6813C-17.3709 46.6705 -14.9623 43.5497 -12.4215 40.2452C-9.80733 36.849 -7.10504 33.3242 -3.27188 29.7444C4.14477 22.7867 13.9112 17.1325 23.5309 14.1952L24.7204 13.828C25.5135 13.5894 26.2772 13.3507 27.0556 13.1304C33.9729 11.1477 39.8181 9.31193 45.4724 7.5312C59.0426 3.27214 70.7624 -0.41783 91.0884 -4.19958C111.679 -8.01806 128.7 -8.51373 149.864 0.903948C156.061 3.67601 162.259 7.56791 168.809 11.6985C174.184 15.0764 179.736 18.5644 185.331 21.4282C195.744 26.6786 205.922 28.955 216.452 28.3859C232.886 27.4864 241.257 18.8765 250.113 9.75253C255.356 4.37362 260.761 -1.20723 268.119 -5.39286C269.808 -6.34748 271.511 -7.13687 273.185 -7.70597C280.866 -10.3679 288.503 -10.68 295.259 -10.9553C301.956 -11.2307 308.286 -11.4877 313.47 -13.9844C317.818 -16.0772 321.842 -18.2435 326.115 -20.5199C328.759 -21.9334 331.432 -23.3654 334.237 -24.8157H331.99C329.875 -23.6958 327.804 -22.5943 325.778 -21.5112C321.519 -19.2348 317.494 -17.0686 313.162 -14.9941C308.11 -12.5709 301.853 -12.3138 295.23 -12.0385C288.43 -11.7631 280.734 -11.451 272.951 -8.75238C271.232 -8.16492 269.484 -7.35717 267.751 -6.38419C260.291 -2.12513 254.842 3.47408 249.555 8.90805C240.802 17.9035 232.548 26.4033 216.408 27.2845C205.995 27.8535 195.935 25.5955 185.654 20.4002C180.074 17.5547 174.537 14.085 169.191 10.7071C162.611 6.55822 156.399 2.66632 150.143 -0.14246C128.818 -9.63356 111.679 -9.15626 90.9563 -5.30107C70.5862 -1.51931 58.837 2.17065 45.2521 6.44808C39.5978 8.22881 33.7673 10.0646 26.85 12.0473C26.0863 12.2676 25.2932 12.5062 24.5002 12.7632L23.3106 13.1304C13.5881 16.1044 3.70417 21.8321 -3.8006 28.8632C-7.67781 32.4981 -10.4095 36.0412 -13.053 39.4742C-15.5644 42.7419 -17.9436 45.8444 -21.1453 48.8001C-23.5685 51.0398 -26.0505 52.9306 -28.7235 54.5645C-34.1868 57.924 -40.7076 59.9618 -46.9934 61.9444C-50.8265 63.1561 -54.8066 64.4044 -58.3754 65.9098C-65.5277 68.9388 -71.6666 71.6558 -77.1299 74.2076L-78.5986 74.8868C-90.9352 80.6513 -103.712 86.6176 -114.169 96.6778C-117.312 99.7069 -120.323 103.158 -123.539 107.381V109.014Z" fill="white"/>
<path opacity="0.7" d="M-123.539 133.063C-122.364 131.705 -121.16 130.181 -119.912 128.4C-118.002 125.683 -116.152 122.508 -114.184 119.13C-113.038 117.184 -111.863 115.164 -110.659 113.2C-107.237 107.674 -104.006 103.397 -100.467 99.7436C-90.5093 89.5181 -77.7761 84.231 -65.4396 79.1458L-64.7933 78.8888C-59.5209 76.7042 -53.5289 74.4095 -46.45 71.8577C-42.9546 70.591 -39.2683 69.5813 -35.3764 68.5165C-29.2522 66.8276 -22.937 65.102 -17.3562 62.3115C-14.6979 60.9898 -12.0984 59.4293 -9.42551 57.5752C-5.62173 54.9316 -2.59631 52.1228 0.62001 49.1488C3.39575 46.5787 6.25961 43.9351 9.81372 41.2181C17.3038 35.5088 26.6444 30.4053 36.1318 26.8805C36.7193 26.6602 37.292 26.4399 37.8648 26.2196C38.4082 26.0177 38.9516 25.7974 39.4803 25.5955C46.7648 22.8785 52.8743 19.8494 58.793 16.9305C70.7477 11.0008 82.0416 5.41997 100.517 3.93297C120.579 2.31747 137.042 6.44802 157.368 18.1788C162.185 20.9692 167.003 24.3104 172.099 27.8535C178.194 32.0758 184.509 36.4634 190.971 39.9331C201.075 45.3303 210.856 47.7352 220.902 47.3314C237.571 46.6154 245.017 37.418 252.889 27.6699C257.5 21.9789 262.259 16.086 269.132 11.5883C270.703 10.5602 272.319 9.73411 273.92 9.09158C280.455 6.5031 287.02 5.95236 293.365 5.41997C300.517 4.81416 307.273 4.24506 312.618 0.646883C316.599 -2.03339 320.241 -4.84217 324.089 -7.81617C331.52 -13.5622 339.201 -19.4735 349.937 -24.8524H347.66C337.865 -19.7122 330.639 -14.1497 323.633 -8.73407C319.8 -5.77843 316.173 -2.96965 312.207 -0.307734C307.023 3.18029 300.355 3.74939 293.306 4.33685C286.917 4.88759 280.308 5.43833 273.67 8.06353C272.011 8.72442 270.351 9.58725 268.735 10.6337C261.745 15.2048 256.928 21.1528 252.272 26.8989C244.518 36.4818 237.189 45.5506 220.858 46.2482C210.944 46.6705 201.281 44.2839 191.294 38.9417C184.876 35.4904 178.59 31.1212 172.51 26.8989C167.399 23.3558 162.553 19.9963 157.721 17.1875C137.263 5.38326 120.682 1.23434 100.458 2.84985C81.8507 4.35521 70.498 9.97276 58.4845 15.9208C52.5953 18.8397 46.5004 21.8688 39.2453 24.5674C38.7019 24.7693 38.1585 24.9713 37.6151 25.1916C37.0424 25.4119 36.4696 25.6322 35.8821 25.8525C26.3213 29.4139 16.9073 34.5358 9.35843 40.3002C5.77495 43.0356 2.89642 45.6975 0.105988 48.286C-3.08096 51.2416 -6.09168 54.0137 -9.85141 56.6389C-12.495 58.4747 -15.0504 59.9984 -17.6793 61.3202C-23.1867 64.0739 -29.4872 65.7996 -35.5674 67.4701C-39.4739 68.5349 -43.1602 69.563 -46.685 70.8297C-53.7785 73.3814 -59.7853 75.6762 -65.0577 77.8608L-65.6892 78.1178C-78.1139 83.258 -90.9352 88.5635 -101.01 98.9174C-104.594 102.626 -107.883 106.958 -111.335 112.539C-112.554 114.503 -113.729 116.541 -114.874 118.487C-116.827 121.828 -118.663 125.004 -120.558 127.666C-121.571 129.116 -122.57 130.401 -123.539 131.558V133.063Z" fill="white"/>
<path opacity="0.7" d="M-123.539 158.563C-122.834 157.792 -122.129 157.002 -121.424 156.231C-117.65 152.082 -114.389 148.484 -111.29 143.986C-108.808 140.388 -106.547 136.533 -104.212 131.833C-103.11 129.63 -102.038 127.317 -100.907 124.857C-99.5119 121.81 -98.058 118.671 -96.5012 115.66C-93.6374 110.098 -90.612 105.6 -87.2928 101.928C-77.8054 91.4457 -65.087 86.9113 -52.7944 82.5237C-47.4926 80.6329 -41.618 78.7603 -34.8329 76.7593C-31.3229 75.7129 -27.6806 74.8684 -23.8181 73.9689C-17.9876 72.6104 -11.9515 71.2152 -6.41467 69.0857C-3.7858 68.076 -1.20099 66.9194 1.72161 65.4691C6.56813 63.0642 10.695 60.4023 15.0716 57.5935C17.5242 56.0147 20.065 54.3809 22.8407 52.7286C29.8021 48.5614 38.2614 44.2656 48.6888 39.6026C49.5406 39.2171 50.3631 38.8316 51.1855 38.4461L51.8758 38.1156C58.7784 34.8846 64.6236 30.8275 70.2779 26.8989C81.6305 19.0049 92.3809 11.5332 109.887 12.1023C129.817 12.7265 145.678 21.5016 164.814 35.4721C167.928 37.7485 171.041 40.1717 174.331 42.7419C181.454 48.3044 188.827 54.0688 196.537 58.4747C206.318 64.0372 215.747 66.589 225.278 66.2952C242.138 65.7812 248.645 56.0147 255.518 45.6608C259.527 39.6394 263.654 33.416 270.087 28.6245C271.526 27.5598 273.053 26.6602 274.61 25.9443C280.206 23.4292 286.095 22.6765 291.793 21.9422C299.269 20.9876 306.318 20.088 311.708 15.2966C315.6 11.8636 319.081 8.2104 322.767 4.35521C330.375 -3.59382 338.246 -11.8366 349.878 -18.0416C362.2 -24.6321 375.653 -25.7336 392.234 -21.5296C397.844 -20.0977 402.705 -17.344 407.39 -14.6821C416.07 -9.74376 424.28 -5.08082 436.264 -9.06451C439.759 -10.2211 443.108 -12.167 447.146 -15.3613C447.881 -15.9488 448.615 -16.5362 449.349 -17.1421C453.021 -20.1161 456.619 -23.0166 460.393 -24.8524H458.176C455.018 -23.0166 451.978 -20.5566 448.865 -18.0416C448.13 -17.4541 447.411 -16.8667 446.676 -16.2792C442.711 -13.14 439.436 -11.2491 436.029 -10.1109C424.338 -6.21902 416.276 -10.8085 407.728 -15.6734C402.999 -18.372 398.094 -21.1441 392.381 -22.5944C387.843 -23.7509 383.554 -24.4853 379.427 -24.8524H368.706C361.892 -24.2099 355.562 -22.2823 349.511 -19.0513C337.762 -12.7728 329.846 -4.49336 322.18 3.51074C318.508 7.34757 315.027 10.9825 311.165 14.3971C305.966 19.0233 299.019 19.9045 291.661 20.8591C285.904 21.5934 279.971 22.3461 274.272 24.9162C272.657 25.6505 271.085 26.5684 269.602 27.6699C263.052 32.5532 258.866 38.85 254.813 44.9448C248.057 55.0968 241.683 64.6981 225.22 65.1938C215.776 65.4691 206.524 62.9541 196.86 57.465C189.209 53.0958 181.865 47.3497 174.757 41.8056C171.467 39.2355 168.354 36.7939 165.226 34.5175C145.972 20.4552 129.993 11.625 109.887 11.0008C92.1166 10.4317 81.3074 17.9769 69.8373 25.9443C64.2124 29.8545 58.3965 33.8933 51.5527 37.0876L50.8624 37.418C50.04 37.8036 49.2175 38.1891 48.3804 38.5746C37.9236 43.2559 29.4496 47.5517 22.4442 51.7373C19.6537 53.4079 17.113 55.0418 14.6457 56.6205C10.2985 59.411 6.1716 62.0545 1.36914 64.4594C-1.52409 65.9097 -4.09422 67.0479 -6.69372 68.0392C-12.1864 70.1504 -18.1932 71.5456 -23.9943 72.9041C-27.8569 73.8037 -31.5138 74.6481 -35.0532 75.6945C-41.853 77.6772 -47.7423 79.5681 -53.0588 81.459C-65.4394 85.8649 -78.246 90.4361 -87.895 101.084C-91.2876 104.829 -94.3423 109.4 -97.2502 115.036C-98.8364 118.083 -100.276 121.241 -101.686 124.288C-102.816 126.748 -103.874 129.061 -104.975 131.228C-107.296 135.872 -109.528 139.691 -111.981 143.252C-115.05 147.695 -118.281 151.256 -122.041 155.405C-122.555 155.974 -123.069 156.525 -123.583 157.094V158.563H-123.539Z" fill="white"/>
<path opacity="0.7" d="M555.87 14.1771C554.519 13.8283 553.124 13.5529 551.626 13.3326C548.043 12.8002 544.356 12.5983 540.787 12.4147C535.618 12.1393 530.257 11.8639 525.146 10.5422C511.84 7.09085 500.826 -3.00607 492.704 -11.414C491.896 -12.2585 491.089 -13.103 490.296 -13.9291C486.345 -18.078 482.585 -22.0066 477.885 -24.8338H475.727C476.167 -24.6135 476.593 -24.4115 477.034 -24.1545C481.866 -21.3641 485.684 -17.3437 489.737 -13.103C490.53 -12.2585 491.338 -11.414 492.161 -10.5879C500.356 -2.10652 511.473 8.10055 524.97 11.5886C530.154 12.9287 535.544 13.2224 540.758 13.4795C544.312 13.663 547.984 13.8466 551.538 14.379C553.065 14.5993 554.505 14.9114 555.885 15.2602V14.1771H555.87Z" fill="white"/>
<path opacity="0.7" d="M555.87 21.9792C554.005 20.639 551.978 19.5559 549.76 18.8216C547.44 18.0505 544.973 17.5365 542.226 17.2611C538.584 16.894 534.839 16.9674 531.211 17.0225C526.35 17.0959 521.313 17.1877 516.466 16.2331C504.864 13.92 494.906 6.17288 484.024 -2.96942L483.216 -3.64867C478.149 -7.88938 473.362 -11.8914 467.693 -14.535C456.443 -19.7487 449.349 -13.2316 441.83 -6.32894C440.64 -5.24582 439.451 -4.14434 438.232 -3.07957C434.531 0.114729 431.402 2.00561 428.098 3.07037C416.995 6.65019 409.549 1.27129 401.677 -4.41971C397.065 -7.76087 392.292 -11.1938 386.491 -13.1398C370.219 -18.5921 357.133 -17.6742 345.311 -10.2576C334.883 -3.68538 327.76 6.06273 320.887 15.4988C317.524 20.1066 314.028 24.8797 310.254 29.1204C305.114 34.9032 297.991 36.1332 290.471 37.4183C285.272 38.3178 279.912 39.2357 275.007 41.7508C273.435 42.5585 271.952 43.5498 270.601 44.7064C264.462 49.9384 260.893 56.6208 257.427 63.0644C251.684 73.7672 246.28 83.9008 229.684 84.1578C220.755 84.3231 211.884 81.6611 202.529 76.0069C192.88 70.1506 183.936 61.9997 175.286 54.1057L172.818 51.8477C156.046 36.6289 140.215 22.2729 119.419 19.152C102.382 16.5819 92.043 26.073 81.1016 36.0965C75.8145 40.943 70.3365 45.9547 63.9772 49.608C62.9933 50.1771 61.9946 50.7462 60.9665 51.2786C53.0505 55.4642 44.1946 59.3745 35.6324 63.1562C27.8046 66.6075 20.6816 69.6733 12.7069 72.2802C9.6962 73.2532 6.9792 74.0609 4.39439 74.7585C-1.03958 76.2272 -6.70855 77.2919 -12.2013 78.32C-16.0785 79.0543 -19.7354 79.7335 -23.3189 80.5597C-30.3978 82.1568 -35.9933 83.5887 -40.9426 85.0574C-51.8693 88.27 -65.4543 92.2721 -74.6773 103.25C-77.8643 107.05 -80.6107 111.732 -83.078 117.551C-84.9285 121.902 -86.4852 126.51 -87.9833 130.952C-88.4238 132.256 -88.8498 133.541 -89.2903 134.808C-91.1996 140.333 -92.8885 144.923 -94.974 149.329C-97.3826 154.396 -100.188 159.004 -103.801 163.85C-109.866 171.964 -116.372 178.279 -123.524 182.924V184.136C-116.137 179.399 -109.425 172.956 -103.169 164.584C-99.5121 159.683 -96.6629 155.001 -94.225 149.88C-92.1101 145.437 -90.4065 140.811 -88.4826 135.248C-88.042 133.982 -87.6161 132.696 -87.1755 131.393C-85.6775 126.969 -84.1354 122.379 -82.2996 118.065C-79.8763 112.337 -77.1887 107.748 -74.0752 104.04C-65.0284 93.2634 -51.5609 89.2981 -40.737 86.1038C-35.8024 84.6351 -30.2215 83.2032 -23.1573 81.6244C-19.5885 80.8167 -15.9316 80.1191 -12.0544 79.3847C-6.54699 78.3567 -0.86335 77.2736 4.60001 75.8049C7.18481 75.1073 9.91649 74.2996 12.9419 73.3082C20.9607 70.7014 28.0983 67.6356 35.9408 64.1659C44.5177 60.3842 53.3883 56.4555 61.319 52.2699C62.3471 51.7192 63.3604 51.1501 64.3591 50.581C70.8064 46.8726 76.3139 41.8242 81.6303 36.9593C92.4396 27.0643 102.647 17.7201 119.33 20.2168C139.906 23.3009 155.665 37.5835 172.334 52.7105L174.801 54.9502C183.481 62.8625 192.454 71.0502 202.177 76.9431C211.664 82.6892 220.637 85.3695 229.728 85.2042C246.765 84.9472 252.316 74.5933 258.176 63.6335C261.583 57.2633 265.123 50.6728 271.115 45.5692C272.422 44.4494 273.861 43.4948 275.374 42.7237C280.176 40.2638 285.478 39.3459 290.618 38.4647C298.285 37.1429 305.51 35.9129 310.856 29.8915C314.675 25.614 318.17 20.8226 321.548 16.1964C328.377 6.83377 335.441 -2.84092 345.736 -9.30295C357.353 -16.5911 370.248 -17.4906 386.3 -12.1117C391.984 -10.2025 396.698 -6.80625 401.266 -3.5018C409.299 2.29934 416.892 7.78839 428.333 4.09842C431.74 2.99694 434.942 1.05099 438.731 -2.21674C439.965 -3.28151 441.169 -4.38299 442.358 -5.48447C449.687 -12.2035 456.59 -18.5554 467.414 -13.5437C472.994 -10.9552 477.738 -6.98983 482.761 -2.78584L483.569 -2.10659C494.539 7.10914 504.585 14.9297 516.349 17.2611C521.269 18.2158 526.335 18.1423 531.226 18.0505C534.839 17.9955 538.555 17.922 542.167 18.2892C544.87 18.5646 547.293 19.0602 549.555 19.8129C551.86 20.5839 553.946 21.7589 555.885 23.2091V21.9792H555.87Z" fill="white"/>
<path opacity="0.7" d="M555.869 37.1062C551.815 30.0934 547.086 24.4575 540.14 22.3647C534.118 20.5472 527.833 21.1163 521.752 21.6671C517.155 22.0893 512.412 22.5115 507.8 21.9057C497.622 20.5656 488.37 14.2871 479.426 8.21063C472.597 3.56605 465.533 -1.2254 457.999 -3.92403C446.881 -7.88937 440.698 -1.33555 434.148 5.62215C430.036 9.99136 425.776 14.4891 420.137 16.2515C409.592 19.5559 402.748 13.4243 395.493 6.94393C391.028 2.94188 386.402 -1.18868 380.572 -3.64866C364.549 -10.4228 352.374 -9.74353 341.08 -1.40898C331.945 5.32842 325.659 16.3983 319.579 27.1011C316.348 32.792 312.999 38.685 309.269 43.8619C304.232 50.838 296.712 52.4902 289.442 54.069C283.113 55.4459 276.548 56.8778 271.51 61.7794C265.783 67.3602 262.816 74.4097 259.937 81.2389C255.017 92.9513 250.758 103.067 234.075 103.14H233.913C213.499 103.14 195.376 85.9936 180.337 69.2144C179.221 67.966 178.09 66.6993 176.959 65.4326C162.552 49.2592 147.66 32.535 128.861 27.3397C112.471 22.8053 102.631 34.2607 92.2183 46.3954C87.2837 52.1414 82.1728 58.0894 76.3129 62.1833C56.8975 75.7315 27.9652 79.8253 2.45488 83.4235C-8.83898 85.0207 -19.5013 86.526 -28.9153 88.729C-42.0303 91.7764 -53.5298 95.1543 -61.5486 105.508C-68.319 114.265 -70.992 126.326 -73.5621 137.965C-74.8545 143.821 -76.191 149.861 -78.0414 155.442C-87.8226 185.072 -104.477 193.241 -123.555 195.701V196.784C-104.169 194.324 -87.2205 186.1 -77.2337 155.846C-75.3685 150.21 -74.0174 144.115 -72.725 138.241C-70.1695 126.712 -67.5406 114.797 -60.9171 106.243C-53.0892 96.1089 -41.7219 92.7861 -28.7538 89.7754C-19.3692 87.5908 -8.7068 86.0854 2.55769 84.4883C28.1561 80.8717 57.1618 76.7595 76.7388 63.1195C82.7015 58.9706 87.8418 52.9675 92.8205 47.1847C103.072 35.252 112.75 23.9802 128.699 28.4045C147.278 33.5447 162.082 50.1771 176.401 66.2587C177.532 67.5255 178.648 68.7922 179.779 70.0405C194.935 86.9666 213.22 104.242 233.928 104.242H234.104C251.302 104.168 255.869 93.2818 260.716 81.7713C263.55 75.0522 266.473 68.0946 272.054 62.6606C276.93 57.9242 283.377 56.5106 289.604 55.1521C297.021 53.5366 304.687 51.866 309.915 44.6146C313.69 39.3826 317.038 33.4713 320.284 27.7436C326.305 17.1326 332.532 6.17289 341.506 -0.454361C352.565 -8.60533 364.519 -9.26622 380.278 -2.60225C385.991 -0.17899 390.558 3.89649 394.979 7.84347C402.396 14.4707 409.416 20.7492 420.343 17.3346C426.188 15.5171 430.506 10.9093 434.706 6.48498C441.08 -0.270781 447.087 -6.64102 457.764 -2.84091C465.195 -0.17899 472.215 4.57574 479.015 9.20197C488.047 15.3336 497.373 21.6671 507.712 23.0256C512.397 23.6314 517.185 23.2092 521.811 22.7869C527.818 22.2362 534.045 21.6854 539.934 23.4478C547.013 25.5773 551.742 31.5804 555.869 38.9971V37.1062Z" fill="white"/>
<path opacity="0.7" d="M555.87 53.2062C554.372 51.1318 552.771 49.1491 550.935 47.3317C547.293 43.7151 543.563 41.2735 539.509 39.8783C533.502 37.7855 527.319 37.5285 521.357 37.2715C516.672 37.0695 512.266 36.8859 507.919 35.8762C498.593 33.7467 490.442 27.4683 481.806 20.8227C474.859 15.4805 467.678 9.9547 459.835 6.79711C448.424 2.20761 441.595 8.77978 434.354 15.7191C430.36 19.556 426.233 23.5213 421.21 25.5407C419.139 26.3668 417.303 26.8808 415.57 27.1195C409.02 28.019 404.453 24.8064 399.18 21.0797C398.02 20.2536 396.831 19.4274 395.567 18.6013C392.351 16.4902 388.43 14.122 383.745 12.6166C374.272 9.5141 366.782 8.70635 360.173 10.0648C354.666 11.2214 349.643 13.865 344.826 18.124C341.022 21.4835 337.527 25.8895 333.811 32.0027C331.549 35.7477 329.361 39.8416 327.261 43.8069C323.325 51.1869 319.271 58.8238 314.293 64.937C308.683 71.8764 300.825 72.6474 293.232 73.3817C287.27 73.9692 281.63 74.5199 277.077 77.8611C271.57 81.9182 268.442 87.5908 265.431 93.0799C260.217 102.553 255.297 111.511 238.863 112.668C237.218 112.778 235.529 112.833 233.826 112.778C214.645 112.319 197.829 98.11 183.907 84.268C182.1 82.4689 180.294 80.6331 178.487 78.7973L175.653 75.9151C162.964 63.0645 148.586 48.4882 130.712 43.9538C115.057 39.9701 105.437 50.4709 95.2593 61.5959C90.4862 66.8095 85.5516 72.2068 79.9267 75.9702C60.7462 88.729 32.6804 92.6393 7.93379 96.0906C-2.40546 97.5409 -12.1866 98.8994 -20.925 100.79C-31.1468 103.03 -43.8652 105.82 -52.3099 115.826C-52.7946 116.395 -53.2499 116.982 -53.6905 117.57C-59.3888 125.28 -62.0911 135.395 -64.7053 145.18C-66.0858 150.357 -67.5104 155.699 -69.3756 160.656C-74.1193 173.286 -80.4491 182.3 -88.747 188.175C-98.9247 195.444 -110.821 197.28 -123.51 198.161V199.244C-111.012 198.363 -98.6163 196.454 -88.3211 189.111C-79.8617 183.108 -73.4144 173.947 -68.5972 161.096C-66.7173 156.085 -65.2781 150.706 -63.8829 145.51C-61.298 135.836 -58.6251 125.831 -53.0443 118.285C-52.6184 117.698 -52.1631 117.129 -51.7078 116.578C-43.454 106.812 -30.8678 104.04 -20.7635 101.837C-12.0398 99.9458 -2.28796 98.5873 8.03659 97.137C32.8714 93.6674 61.0252 89.7387 80.3379 76.8881C86.0509 73.0696 91.0296 67.6357 95.8321 62.3853C105.848 51.4439 115.306 41.1266 130.536 44.9818C148.204 49.4612 162.494 63.9457 175.109 76.7229L177.944 79.6051C179.765 81.4593 181.571 83.2951 183.378 85.0941C197.418 99.0463 214.381 113.384 233.826 113.843C235.544 113.88 237.262 113.843 238.922 113.733C255.782 112.539 261.054 102.938 266.151 93.6674C269.117 88.2701 272.172 82.7076 277.533 78.7606C281.909 75.5296 287.446 74.9972 293.321 74.4281C301.075 73.6754 309.094 72.886 314.924 65.6713C319.962 59.4847 324.045 51.7927 327.995 44.376C330.095 40.429 332.269 36.3352 334.516 32.6269C338.173 26.6054 341.624 22.2729 345.34 18.9869C350.054 14.8196 354.959 12.2495 360.335 11.1113C366.826 9.77112 374.199 10.5789 383.554 13.6447C388.151 15.1317 392.013 17.4631 395.186 19.556C396.434 20.3637 397.609 21.2082 398.769 22.0159C404.174 25.8344 408.859 29.1205 415.673 28.1842C417.465 27.9456 419.359 27.4132 421.489 26.5504C426.659 24.4759 430.844 20.4555 434.898 16.5452C441.947 9.77112 448.6 3.36416 459.586 7.78845C467.34 10.9093 474.478 16.3984 481.38 21.7222C489.707 28.1292 498.299 34.7564 507.786 36.9227C512.192 37.9324 516.848 38.1343 521.357 38.3179C527.275 38.5749 533.4 38.8319 539.304 40.888C543.24 42.2465 546.867 44.633 550.421 48.1578C552.477 50.1955 554.24 52.4352 555.899 54.8217V53.2062H555.87Z" fill="white"/>
<path opacity="0.7" d="M555.87 69.1226C554.298 67.4704 552.58 65.8732 550.553 64.2944C546.427 61.0818 542.726 58.8972 538.878 57.3735C533.018 55.0787 527.084 53.9956 521.357 52.9308C516.657 52.068 512.237 51.2602 508.021 49.8467C499.503 46.9644 492.043 40.4841 484.127 33.5998C477.092 27.4866 469.822 21.1714 461.627 17.4814C449.79 12.1576 442.153 18.895 434.09 26.0179C430.374 29.2857 426.541 32.6819 422.238 34.8114C420.094 35.8762 418.376 36.5922 416.863 37.0511C410.9 38.8686 407.096 37.0144 402.294 34.6829C401.148 34.1322 399.959 33.5447 398.666 32.994C395.391 31.5621 391.499 29.9465 386.888 28.8818C379.53 27.1928 370.953 25.7976 363.169 28.1291C357.911 29.7079 353.124 32.8104 348.542 37.6386C345.105 41.2735 341.933 45.9915 338.525 52.4719C337.057 55.2806 335.647 58.1628 334.164 61.2103C329.831 70.1139 325.337 79.3297 319.271 85.9936C312.942 92.933 304.658 92.6576 296.654 92.4006C291.47 92.2354 286.565 92.0701 282.599 93.961C277.121 96.5862 273.92 100.845 270.527 105.343C265.093 112.558 259.468 120.029 243.592 122.232C241.977 122.453 240.273 122.636 238.555 122.783C218.64 124.399 201.53 111.86 187.417 99.3766C185.126 97.3573 182.893 95.2828 180.514 93.0798L177.518 90.3078C163.845 77.6591 149.717 64.5882 132.489 60.6045C117.583 57.1532 108.213 66.6993 98.2995 76.7963C93.6732 81.4959 88.8854 86.3791 83.4955 89.7937C64.5207 101.818 37.2479 105.545 13.1916 108.831C3.85099 110.098 -4.97555 111.309 -12.9797 112.907C-22.7461 114.908 -34.8918 117.386 -43.1162 126.179C-43.5862 126.675 -44.0415 127.207 -44.4674 127.721C-50.1363 134.606 -53.0736 143.675 -55.9228 152.431C-57.3914 156.929 -58.8894 161.592 -60.7693 165.906C-65.6011 177.105 -71.8576 185.127 -79.891 190.414C-91.2583 197.923 -105.269 199.153 -118.825 200.346C-120.382 200.474 -121.953 200.621 -123.524 200.768V201.851C-121.938 201.704 -120.337 201.557 -118.766 201.411C-105.122 200.217 -91.0233 198.969 -79.4945 191.369C-71.3142 185.972 -64.9402 177.802 -60.0203 166.42C-58.1257 162.051 -56.613 157.37 -55.1444 152.835C-52.3393 144.189 -49.4314 135.23 -43.8946 128.492C-43.4687 127.978 -43.0281 127.483 -42.5728 126.987C-34.5246 118.396 -22.5111 115.936 -12.8475 113.953C-4.85806 112.356 3.9538 111.144 13.2797 109.877C37.4095 106.573 64.7703 102.846 83.8774 90.73C89.3554 87.2603 94.1725 82.3404 98.8428 77.604C108.609 67.6723 117.832 58.2914 132.328 61.6325C149.349 65.5795 163.404 78.5586 177.004 91.1339L180 93.9059C182.379 96.1089 184.626 98.1834 186.917 100.203C201.149 112.796 218.449 125.445 238.614 123.811C240.347 123.664 242.05 123.481 243.68 123.26C259.88 121.021 265.872 113.053 271.144 106.041C274.463 101.635 277.606 97.449 282.893 94.9156C286.697 93.0982 291.514 93.2634 296.61 93.4286C304.409 93.6856 313.235 93.9794 319.815 86.7647C325.983 80.0089 330.507 70.7197 334.868 61.7427C336.352 58.6952 337.747 55.813 339.216 53.0226C342.579 46.634 345.707 41.9894 349.07 38.428C353.55 33.7099 358.22 30.6809 363.345 29.1388C370.982 26.844 379.442 28.2392 386.712 29.9098C391.264 30.9562 395.112 32.5534 398.358 33.967C399.636 34.5177 400.825 35.1052 401.956 35.6559C406.714 37.969 410.812 39.97 417.039 38.0608C418.596 37.5835 420.344 36.8675 422.532 35.7844C426.938 33.5998 430.815 30.1668 434.56 26.8624C442.447 19.9047 449.893 13.3142 461.319 18.4544C469.396 22.0893 476.622 28.3678 483.613 34.4443C491.587 41.3652 499.107 47.9191 507.772 50.838C512.031 52.2699 516.481 53.096 521.21 53.9589C526.908 55.0053 532.812 56.0884 538.599 58.3648C542.358 59.8518 546.015 62.018 550.069 65.1756C552.301 66.9196 554.152 68.682 555.841 70.5178V69.1226H555.87Z" fill="white"/>
<path opacity="0.7" d="M555.869 84.837C554.224 83.6988 552.403 82.5422 550.156 81.2572L548.819 80.4861C545.706 78.6687 542.181 76.631 538.245 74.8869C532.929 72.5555 527.598 70.8115 522.457 69.1042C517.332 67.4152 512.5 65.8181 508.138 63.8171C500.398 60.274 493.613 53.61 486.431 46.5789C479.338 39.6212 471.995 32.4432 463.462 28.1841C450.978 21.9607 441.946 29.4508 433.208 36.6839C430.021 39.3274 426.731 42.0444 423.309 44.1005C421.562 45.1469 419.77 46.2117 418.198 47.0011C412.544 49.8282 409.445 49.1123 404.746 48.0291C403.82 47.8088 402.851 47.5885 401.794 47.3866C400.971 47.2214 400.105 47.0378 399.194 46.8359C396.521 46.2668 393.481 45.6242 390.059 45.1653C382.055 44.1005 373.61 43.2928 366.179 46.2117C361.083 48.2127 356.545 51.8109 352.271 57.1898C348.35 62.1465 345.383 68.223 343.253 72.9777C342.402 74.8502 341.565 76.7962 340.698 78.7788C336.145 89.2613 331.446 100.093 324.264 107.087C317.053 114.118 307.844 112.429 299.723 110.942C295.464 110.171 291.44 109.437 288.179 110.061C282.334 111.199 278.868 114.357 274.829 118.01C269.293 123.04 263.007 128.749 248.335 131.797C246.661 132.146 244.972 132.476 243.298 132.788C222.472 136.643 204.379 125.023 190.941 114.467C188.194 112.319 185.477 110.024 182.599 107.619L181.908 107.05C180.645 105.985 179.397 104.921 178.149 103.874C164.769 92.5107 150.949 80.7615 134.266 77.2919C120.108 74.3362 110.958 82.9278 101.28 92.0334C96.8152 96.2373 92.1889 100.57 87.0487 103.654C68.3088 114.889 41.9026 118.414 18.5953 121.535C10.1946 122.655 2.24927 123.719 -5.04988 125.078C-14.3464 126.803 -25.9046 128.951 -33.9381 136.607C-34.3934 137.047 -34.834 137.488 -35.2746 137.947C-40.9141 144.023 -44.1158 152.009 -47.1999 159.738C-48.7273 163.575 -50.3135 167.522 -52.1786 171.23C-57.1133 181.015 -63.2816 188.046 -71.036 192.727C-81.3018 198.932 -93.6825 200.456 -105.652 201.925C-111.6 202.659 -117.68 203.412 -123.555 204.752V205.853C-117.665 204.513 -111.556 203.742 -105.578 203.008C-93.5356 201.521 -81.0815 199.997 -70.6688 193.7C-62.7676 188.927 -56.4818 181.767 -51.459 171.799C-49.5645 168.054 -47.9783 164.07 -46.4362 160.215C-43.2493 152.229 -40.2386 144.703 -34.7312 138.773C-34.3199 138.332 -33.8793 137.892 -33.4388 137.469C-25.5815 129.979 -14.1408 127.85 -4.9324 126.143C2.36675 124.784 10.2974 123.738 18.6834 122.599C42.0495 119.479 68.5438 115.936 87.4159 104.627C92.6442 101.488 97.2998 97.1185 101.794 92.8962C111.325 83.9375 120.328 75.4928 134.119 78.3566C150.612 81.7896 163.756 92.9513 177.664 104.774C178.912 105.839 180.175 106.903 181.424 107.968L182.114 108.537C184.992 110.96 187.724 113.255 190.471 115.403C204.041 126.051 222.311 137.782 243.415 133.871C245.089 133.559 246.778 133.229 248.467 132.88C263.33 129.796 269.983 123.756 275.329 118.91C279.265 115.33 282.657 112.246 288.297 111.144C291.425 110.538 295.39 111.254 299.591 112.025C307.889 113.549 317.288 115.256 324.793 107.95C332.106 100.808 336.865 89.8855 341.462 79.3112C342.314 77.3469 343.165 75.401 344.002 73.5284C346.117 68.8471 349.025 62.8441 352.873 57.9792C357.044 52.7288 361.479 49.2224 366.429 47.2765C373.698 44.4126 382.04 45.2204 389.956 46.2668C393.349 46.7257 396.374 47.3682 399.033 47.9373C399.943 48.1393 400.81 48.3229 401.632 48.4881C402.689 48.69 403.644 48.9287 404.569 49.1306C409.24 50.1954 412.603 50.9848 418.492 48.0475C420.078 47.2581 421.899 46.175 423.662 45.1102C427.142 43.0174 430.461 40.2637 433.678 37.6201C442.622 30.2035 451.081 23.2091 463.139 29.2122C471.569 33.4161 478.853 40.5391 485.903 47.4417C493.143 54.5279 499.987 61.2286 507.844 64.8451C512.25 66.8645 517.097 68.4616 522.237 70.1506C527.377 71.8395 532.679 73.5835 537.966 75.8966C541.858 77.6039 545.368 79.66 548.452 81.4591L549.789 82.2302C552.197 83.6254 554.121 84.8554 555.869 86.067V84.837Z" fill="white"/>
<path opacity="0.7" d="M555.869 100.331C554.165 99.799 552.241 99.1931 549.759 98.2202C547.321 97.2472 544.663 95.9071 541.843 94.4935C540.478 93.8142 539.082 93.0983 537.614 92.3823C534.765 91.0055 531.901 89.6653 529.096 88.3436C521.415 84.7454 514.159 81.3308 508.241 77.806C501.265 73.6388 495.155 66.9014 488.678 59.7784C481.541 51.9212 474.168 43.807 465.268 38.9054C451.771 31.5071 441.344 39.915 431.255 48.0477C428.993 49.8835 426.643 51.7743 424.337 53.4082C423.221 54.1976 422.178 54.9686 421.224 55.6846C420.622 56.1436 420.034 56.5658 419.491 56.9697C413.484 61.3389 411.119 61.4674 405.362 61.7795L404.863 61.7978C402.645 61.9263 400.016 61.7795 396.962 61.6326C395.757 61.5775 394.509 61.5041 393.187 61.449L392.952 61.4307C384.801 61.1002 376.371 60.7514 369.16 64.2945C364.167 66.7361 359.981 70.6831 355.972 76.7229C352.579 81.8264 350.112 87.7928 347.953 93.4471L346.881 96.2926C342.519 107.858 337.555 120.966 329.243 128.162C320.93 135.358 310.65 131.669 302.381 128.695C299.194 127.556 296.198 126.473 293.745 126.198C286.725 125.39 282.863 127.648 277.018 131.063C271.686 134.165 265.048 138.039 253.064 141.362C251.39 141.821 249.716 142.298 248.027 142.775C231.137 147.64 214.615 143.565 194.436 129.557C191.44 127.483 188.532 125.262 185.037 122.6C183.01 121.039 180.983 119.46 178.971 117.882C165.254 107.105 152.286 96.9351 136.028 93.9244C122.619 91.4277 113.69 99.1014 104.247 107.216C99.9434 110.906 95.4934 114.724 90.6028 117.478C71.8629 127.997 46.0442 131.356 23.2509 134.312C16.0545 135.248 9.2547 136.13 2.88079 137.194C-6.4304 138.755 -16.9753 140.517 -24.7591 146.979C-25.2144 147.346 -25.6403 147.732 -26.0662 148.136C-31.7058 153.386 -35.1571 160.307 -38.5056 166.989C-40.077 170.147 -41.7219 173.415 -43.5577 176.48C-48.5951 184.852 -54.6753 190.91 -62.1654 194.985C-71.271 199.924 -81.9921 201.631 -92.3607 203.265C-101.848 204.77 -111.673 206.312 -120.221 210.369C-121.366 210.92 -122.483 211.544 -123.555 212.242V213.472C-122.38 212.701 -121.175 211.967 -119.912 211.379C-111.468 207.377 -101.701 205.835 -92.2579 204.348C-81.8305 202.696 -71.036 200.988 -61.8276 195.977C-54.2054 191.828 -48.0077 185.659 -42.8674 177.141C-41.0023 174.02 -39.3574 170.734 -37.7713 167.558C-34.3199 160.656 -31.0595 154.12 -25.5521 148.999C-25.1409 148.613 -24.7297 148.246 -24.2891 147.879C-16.6669 141.563 -6.22481 139.819 2.99828 138.277C9.3575 137.213 16.1573 136.331 23.3537 135.395C46.2057 132.44 72.0979 129.08 90.97 118.487C95.934 115.697 100.413 111.842 104.761 108.134C114.072 100.148 122.854 92.6026 135.94 95.0259C152.007 98.0182 164.901 108.115 178.545 118.836C180.557 120.415 182.569 121.994 184.611 123.573C188.121 126.253 191.043 128.474 194.039 130.567C214.409 144.703 231.137 148.815 248.232 143.895C249.907 143.418 251.581 142.94 253.255 142.481C265.327 139.122 272.01 135.23 277.385 132.109C283.113 128.768 286.887 126.565 293.672 127.354C296.037 127.63 299.003 128.695 302.146 129.814C310.576 132.843 321.077 136.607 329.742 129.135C338.26 121.774 343.253 108.537 347.674 96.8433L348.746 94.0162C350.89 88.417 353.314 82.5424 356.647 77.5123C360.554 71.6194 364.637 67.7642 369.483 65.396C376.533 61.9447 384.875 62.2935 392.938 62.6056L393.173 62.6239C394.48 62.679 395.743 62.7341 396.932 62.8075C400.002 62.9727 402.645 63.1012 404.892 62.9727L405.392 62.9544C411.119 62.6423 413.719 62.5138 419.917 58.0161C420.475 57.6122 421.047 57.1716 421.664 56.7127C422.619 55.9967 423.647 55.2257 424.763 54.4363C427.098 52.7657 429.448 50.8748 431.725 49.039C441.623 41.0532 451.845 32.7921 464.916 39.9701C473.698 44.7799 481.027 52.8575 488.106 60.6596C494.626 67.8376 500.795 74.6301 507.874 78.8524C513.822 82.4139 521.091 85.8101 528.802 89.4267C531.607 90.7484 534.471 92.0886 537.32 93.4654C538.774 94.163 540.169 94.879 541.535 95.5583C544.369 96.9902 547.042 98.3487 549.524 99.3217C552.124 100.35 554.136 100.974 555.898 101.525V100.331H555.869Z" fill="white"/>
<path opacity="0.7" d="M555.87 115.55C554.093 115.752 552.11 115.807 549.364 115.183C545.575 114.339 541.345 112.191 536.983 109.878C527.334 104.792 516.642 98.0182 508.359 91.7765C502.132 87.0769 496.684 80.3211 490.912 73.1798C483.774 64.3312 476.387 55.1889 467.09 49.6081C451.846 40.4474 438.892 51.3521 427.452 60.9717L425.381 62.7157C423.648 64.166 422.15 65.6163 420.799 66.9748L419.712 68.0579C414.895 72.8861 413.279 74.52 407.948 76.264C404.952 77.2553 400.928 77.5307 396.361 77.7693L394.055 77.8795C386.506 78.2283 378.693 78.5954 372.187 82.4139C367.34 85.2594 363.39 89.6653 359.733 96.3109C356.693 101.837 354.519 108.335 352.713 113.99C348.747 126.455 343.813 141.986 334.252 149.274C324.529 156.709 313.103 150.118 304.747 145.309C302.779 144.17 300.913 143.106 299.342 142.39C289.869 138.057 285.258 139.985 274.125 144.611C269.91 146.373 264.653 148.558 257.823 150.944C256.061 151.569 254.416 152.174 252.801 152.799C235.28 159.646 218.376 157.131 197.991 144.684C194.936 142.83 191.881 140.737 188.21 138.186C185.449 136.258 182.688 134.239 180.015 132.293C166.518 122.471 153.77 113.182 137.865 110.593C125.205 108.537 116.481 115.275 107.244 122.416C103.117 125.61 98.8429 128.896 94.2166 131.32C75.2271 141.215 49.7021 144.372 27.1878 147.181C21.4601 147.897 16.0408 148.558 10.8711 149.329C2.02991 150.632 -8.00091 152.101 -15.5204 157.351C-15.961 157.664 -16.3869 157.976 -16.7981 158.288C-22.467 162.712 -26.2268 168.568 -29.8543 174.222C-31.4551 176.719 -33.1 179.289 -34.9065 181.731C-40.032 188.689 -46.0388 193.755 -53.2645 197.225C-61.0924 200.988 -70.1245 202.714 -78.8483 204.385C-88.8791 206.294 -99.233 208.277 -107.869 213.362C-114.478 217.254 -119.412 223.642 -123.539 231.463V233.427C-119.353 225.129 -114.316 218.355 -107.501 214.353C-98.998 209.341 -88.6882 207.377 -78.7161 205.468C-69.9336 203.797 -60.8721 202.053 -52.9414 198.253C-45.5835 194.728 -39.4739 189.57 -34.2602 182.484C-32.4391 180.005 -30.7796 177.417 -29.1641 174.92C-25.419 169.082 -21.8796 163.556 -16.3281 159.224C-15.9316 158.912 -15.5204 158.6 -15.0945 158.306C-7.72188 153.147 1.78024 151.752 10.974 150.412C16.1436 149.659 21.5482 148.98 27.2759 148.264C49.8489 145.455 75.4474 142.279 94.5544 132.329C99.2541 129.888 103.543 126.565 107.699 123.352C116.804 116.321 125.396 109.676 137.762 111.677C153.506 114.228 166.18 123.462 179.604 133.229C182.276 135.175 185.038 137.194 187.813 139.122C191.485 141.692 194.569 143.785 197.638 145.657C218.229 158.251 235.339 160.766 253.08 153.845C254.695 153.221 256.34 152.615 258.088 151.991C264.946 149.586 270.204 147.401 274.434 145.639C285.684 140.958 289.899 139.214 299.078 143.399C300.62 144.097 302.456 145.162 304.409 146.282C312.942 151.183 324.617 157.902 334.722 150.192C344.518 142.702 349.511 127.006 353.535 114.375C355.312 108.776 357.471 102.351 360.452 96.9168C364.021 90.4364 367.869 86.1406 372.569 83.3869C378.913 79.6602 386.638 79.293 394.114 78.9442L396.419 78.8341C401.046 78.5954 405.114 78.3201 408.198 77.3104C413.705 75.5113 415.497 73.7122 420.285 68.9024L421.372 67.8193C422.708 66.4791 424.191 65.0472 425.895 63.6153L427.966 61.8713C439.201 52.4169 451.949 41.6774 466.738 50.5811C475.902 56.0885 483.231 65.1757 490.324 73.9509C496.14 81.1472 501.633 87.958 507.933 92.7128C516.246 98.9912 526.996 105.784 536.675 110.887C541.081 113.219 545.369 115.403 549.232 116.266C552.022 116.89 554.108 116.854 555.899 116.652V115.55H555.87Z" fill="white"/>
<path opacity="0.7" d="M555.87 130.475C554.049 131.522 551.993 132.384 548.953 132.164C544.664 131.87 539.964 129.447 536.337 127.373C528.171 122.71 518.787 115.422 508.447 105.765C502.969 100.643 498.167 93.961 493.085 86.8748C485.962 76.9431 478.59 66.681 468.882 60.3107C452.639 49.6814 436.866 61.8895 426.409 72.0048C424.94 73.4184 423.516 75.0339 422.091 76.9431C420.402 79.2011 419.213 81.1104 418.155 82.7993C416.099 86.1038 414.601 88.4903 411.018 90.7116C407.963 92.6209 403.674 93.447 399.489 94.0344C398.226 94.218 396.933 94.3832 395.641 94.5485C388.518 95.448 381.145 96.3843 375.153 100.496C370.439 103.727 366.709 108.611 363.419 115.862C360.878 121.461 359.189 127.611 357.397 134.477C353.535 149.347 348.644 163.997 339.201 170.349C327.643 178.133 314.616 166.934 306.832 160.234C306.142 159.646 305.496 159.077 304.879 158.581C292.19 147.934 287.079 150.1 262.538 160.509C260.864 161.225 259.175 161.996 257.515 162.804C239.363 171.726 222.077 170.789 201.472 159.775C197.873 157.847 194.319 155.644 191.309 153.735C187.857 151.532 184.435 149.219 181.131 146.961C167.825 137.929 155.253 129.392 139.612 127.244C127.687 125.592 119.14 131.43 110.107 137.598C106.171 140.297 102.103 143.069 97.7414 145.143C78.0175 154.561 52.2428 157.535 29.5082 160.16C25.8366 160.582 22.2384 161.005 18.7578 161.427L18.3465 161.482C9.76967 162.547 0.855003 163.648 -6.32666 167.687C-6.75257 167.926 -7.16379 168.183 -7.575 168.421C-13.3468 172.019 -17.2681 176.591 -21.4096 181.437C-22.9664 183.254 -24.5672 185.127 -26.2708 186.944C-31.4698 192.47 -37.4031 196.564 -44.3939 199.446C-50.8119 202.09 -58.0376 203.669 -65.0136 205.211C-75.7494 207.561 -86.8524 210.002 -95.5467 216.336C-107.266 224.854 -112.216 241.817 -117.444 259.789C-119.324 266.233 -121.248 272.823 -123.539 279.175V281.745C-120.896 274.714 -118.737 267.353 -116.636 260.156C-111.452 242.386 -106.562 225.588 -95.1208 217.272C-86.5439 211.049 -75.5291 208.625 -64.8668 206.275C-57.8467 204.733 -50.5916 203.136 -44.1148 200.474C-37.0213 197.555 -30.9999 193.388 -25.6981 187.771C-23.9798 185.935 -22.3642 184.062 -20.8075 182.245C-16.71 177.453 -12.8328 172.937 -7.17848 169.394C-6.78194 169.156 -6.37072 168.898 -5.9595 168.678C1.08999 164.713 9.93121 163.611 18.4934 162.547L18.9046 162.492C22.3706 162.069 25.9688 161.647 29.6404 161.225C52.4338 158.6 78.2672 155.607 98.1086 146.135C102.514 144.023 106.612 141.233 110.577 138.534C119.492 132.439 127.907 126.693 139.583 128.309C155.048 130.457 167.546 138.938 180.793 147.915C184.112 150.155 187.534 152.486 191 154.689C194.026 156.599 197.594 158.82 201.207 160.766C222.033 171.891 239.509 172.827 257.897 163.795C259.542 162.987 261.216 162.216 262.876 161.519C287.094 151.256 292.131 149.127 304.468 159.462C305.07 159.958 305.716 160.527 306.406 161.115C314.352 167.944 327.658 179.381 339.671 171.285C349.379 164.75 354.357 149.88 358.279 134.789C360.056 127.978 361.715 121.884 364.227 116.376C367.428 109.308 371.056 104.572 375.623 101.433C381.454 97.4307 388.738 96.5128 395.773 95.6132C397.08 95.448 398.373 95.2828 399.636 95.0992C403.895 94.4934 408.271 93.6489 411.458 91.6662C415.218 89.3164 416.76 86.8564 418.89 83.4418C419.932 81.7713 421.122 79.8804 422.781 77.6591C424.177 75.8049 425.557 74.2261 426.996 72.8309C437.262 62.8992 452.727 50.893 468.53 61.2286C478.105 67.5071 485.419 77.6958 492.498 87.554C497.609 94.677 502.441 101.414 507.977 106.591C518.361 116.303 527.789 123.628 536.014 128.327C539.7 130.457 544.503 132.917 548.938 133.21C551.963 133.412 554.063 132.623 555.899 131.632V130.475H555.87Z" fill="white"/>
<path opacity="0.7" d="M555.87 145.051C554.005 147.071 551.89 148.907 548.556 149.164C544.973 149.439 540.89 148.099 535.705 144.886C525.66 138.699 515.923 128.199 508.565 119.754C503.851 114.338 499.694 107.821 495.303 100.9C488.21 89.7569 480.881 78.2464 470.703 71.0134C455.4 60.1454 438.334 69.1959 427.466 81.3122C425.968 82.9828 424.647 84.8186 423.428 86.9298C421.592 90.1241 420.549 93.0063 419.624 95.5397C418.287 99.193 417.142 102.332 414.131 105.196C411.076 108.078 406.612 109.418 402.646 110.336C401.002 110.722 399.312 111.052 397.609 111.401C390.794 112.76 383.745 114.173 378.179 118.579C373.567 122.214 370.072 127.556 367.179 135.395C364.946 141.435 363.551 148.191 362.215 154.726L362.171 154.965C359.556 167.613 354.871 185.164 344.238 191.442C334.766 197.041 323.722 191.589 310.474 174.791C298.123 159.132 290.868 158.324 267.326 170.073C265.666 170.899 263.977 171.817 262.303 172.809C243.534 183.915 225.88 184.539 205.04 174.883C202.015 173.488 198.667 171.707 194.496 169.302C190.383 166.916 186.345 164.364 182.438 161.886C169.279 153.533 156.854 145.657 141.434 143.895C130.198 142.628 121.827 147.548 112.971 152.78C109.256 154.965 105.408 157.241 101.354 158.985C79.6477 168.311 51.0973 171.138 28.1571 173.433L25.4401 173.708C17.6563 174.479 9.6228 175.269 2.88174 178.096C2.47051 178.261 2.0593 178.445 1.66276 178.628C-4.37337 181.419 -8.74992 185.017 -13.3908 188.817C-14.7714 189.937 -16.1519 191.093 -17.6205 192.231C-22.8636 196.325 -28.7235 199.428 -35.5086 201.741C-40.2523 203.356 -45.4513 204.586 -50.4888 205.78C-62.2379 208.57 -74.3983 211.471 -83.2395 219.383C-93.1675 228.268 -96.7216 243.579 -100.496 259.789C-102.89 270.07 -105.357 280.717 -109.587 290.208C-111.599 294.724 -113.919 298.69 -116.166 302.527L-116.901 303.793C-119.941 308.989 -122.085 313.321 -123.539 317.231V319.912C-123.524 319.893 -123.524 319.857 -123.524 319.838C-122.1 315.451 -119.779 310.549 -116.211 304.436L-115.476 303.169C-113.215 299.314 -110.865 295.312 -108.838 290.741C-104.55 281.139 -102.068 270.437 -99.6736 260.083C-95.9433 244.056 -92.4332 228.911 -82.7548 220.246C-74.0752 212.48 -62.0176 209.598 -50.3566 206.826C-45.3044 205.633 -40.0908 204.385 -35.3177 202.769C-28.4444 200.438 -22.5111 197.28 -17.1946 193.131C-15.726 191.993 -14.3308 190.836 -12.9502 189.716C-8.35338 185.953 -4.0062 182.392 1.9418 179.638C2.33834 179.454 2.72018 179.271 3.1314 179.105C9.76967 176.315 17.7591 175.526 25.4841 174.773L28.2011 174.498C51.1854 172.221 79.8093 169.376 101.604 159.995C105.701 158.232 109.564 155.956 113.309 153.753C122.062 148.594 130.331 143.73 141.331 144.96C156.59 146.685 168.941 154.524 182.027 162.822C185.933 165.3 189.987 167.87 194.114 170.257C198.299 172.68 201.677 174.461 204.717 175.874C225.792 185.659 243.666 184.998 262.655 173.763C264.315 172.79 265.989 171.872 267.619 171.046C292.116 158.82 298.285 160.876 309.828 175.526C323.369 192.69 334.736 198.216 344.576 192.397C355.532 185.935 360.32 168.072 362.978 155.222L363.022 154.983C364.359 148.503 365.739 141.784 367.942 135.836C370.762 128.199 374.155 123.003 378.619 119.479C384.039 115.201 391 113.806 397.726 112.447C399.445 112.099 401.148 111.768 402.793 111.383C406.861 110.446 411.444 109.07 414.63 106.041C417.817 103.03 419.007 99.7621 420.388 95.9803C421.298 93.4836 422.326 90.6565 424.103 87.554C425.278 85.4979 426.556 83.7171 428.01 82.1016C438.643 70.2423 455.327 61.3387 470.248 71.9313C480.279 79.0542 487.563 90.4912 494.598 101.561C499.019 108.5 503.19 115.073 507.948 120.543C515.35 129.043 525.146 139.599 535.294 145.841C540.625 149.145 544.855 150.522 548.585 150.228C551.861 149.971 553.99 148.337 555.841 146.447V145.051H555.87Z" fill="white"/>
<path opacity="0.7" d="M555.87 159.261C553.902 162.492 551.86 165.356 548.174 166.163C544.429 166.989 540.155 165.741 535.089 162.382C525.116 155.809 515.747 143.62 508.682 133.743C504.732 128.217 501.222 121.975 497.521 115.367C490.5 102.865 483.231 89.9223 472.539 81.6979C457.368 70.0406 438.922 77.3471 428.553 90.5832C427.085 92.4374 425.822 94.5669 424.808 96.8984C423.119 100.735 422.4 104.297 421.724 107.73C420.828 112.209 420.05 116.083 417.303 119.644C414.954 122.71 411.517 124.784 405.863 126.602C403.924 127.226 401.956 127.758 399.885 128.327C393.306 130.108 386.491 131.944 381.248 136.644C376.739 140.664 373.479 146.483 370.968 154.928C369.191 160.986 368.163 167.614 367.164 174.021L366.944 175.434C363.786 195.628 357.838 208.093 349.276 212.499C334.237 220.228 320.035 197.959 316.04 190.965C304.952 171.505 296.405 165.631 272.113 179.601C270.468 180.556 268.78 181.621 267.105 182.777C247.499 196.326 230.007 198.473 208.609 189.937C205.378 188.652 201.809 186.981 197.682 184.815C192.953 182.337 188.342 179.583 183.892 176.939C170.85 169.174 158.543 161.849 143.269 160.509C132.68 159.591 124.045 163.832 115.673 167.944C112.222 169.633 108.668 171.377 104.982 172.772C82.0709 181.419 53.9317 184.264 34.7512 185.641L31.9021 185.843C25.1757 186.302 18.229 186.779 12.1488 188.413C11.7523 188.523 11.3558 188.633 10.9592 188.744C4.0566 190.781 -1.27457 193.517 -6.91416 196.399L-8.91151 197.409C-14.0811 200.034 -19.8529 202.163 -26.594 203.926C-29.1494 204.587 -31.7636 205.211 -34.51 205.853C-47.904 208.993 -61.7386 212.224 -70.8736 222.339C-79.2742 231.628 -81.6387 245.745 -84.1501 260.689C-86.03 271.906 -87.9686 283.508 -92.6242 293.641C-94.8859 298.598 -97.6763 302.765 -100.144 306.437C-104.329 312.679 -106.943 316.938 -108.882 320.665C-111.276 325.254 -112.392 329.274 -112.73 334.58C-113.038 339.408 -112.407 344.714 -111.687 350.863C-111.526 352.185 -111.364 353.544 -111.217 354.957C-110.263 363.494 -109.293 379.649 -113.552 392.114C-115.124 396.703 -117.371 400.632 -120.102 403.533C-121.204 405.038 -122.364 406.543 -123.524 408.03V409.591C-122.144 407.828 -120.807 406.084 -119.515 404.304C-116.71 401.348 -114.375 397.291 -112.759 392.536C-108.427 379.832 -109.396 363.439 -110.365 354.792C-110.527 353.379 -110.688 352.02 -110.835 350.698C-111.555 344.603 -112.172 339.353 -111.878 334.653C-111.555 329.55 -110.483 325.658 -108.162 321.234C-106.224 317.544 -103.639 313.321 -99.4827 307.098C-97.0007 303.39 -94.1809 299.167 -91.8898 294.137C-87.1755 283.857 -85.2075 272.181 -83.313 260.872C-80.8456 246.113 -78.4958 232.16 -70.3155 223.11C-61.3568 213.197 -47.6249 209.984 -34.3631 206.881C-31.6021 206.239 -29.0026 205.633 -26.4324 204.954C-19.6473 203.191 -13.8168 201.044 -8.6031 198.382L-6.60575 197.372C-0.745865 194.38 4.30627 191.791 11.1501 189.772C11.532 189.662 11.9285 189.551 12.3251 189.441C18.3465 187.826 25.2638 187.348 31.9461 186.889L34.7953 186.688C54.0198 185.311 82.2178 182.465 105.217 173.763C108.932 172.368 112.516 170.606 115.982 168.899C124.632 164.658 132.827 160.637 143.196 161.537C158.308 162.859 170.542 170.147 183.495 177.857C187.96 180.519 192.572 183.273 197.33 185.77C201.472 187.936 205.07 189.625 208.315 190.928C229.963 199.557 247.66 197.39 267.487 183.677C269.147 182.539 270.806 181.474 272.436 180.538C295.832 167.063 303.998 171.707 315.306 191.534C319.389 198.712 333.943 221.494 349.57 213.454C358.425 208.901 364.55 196.16 367.766 175.599L367.986 174.186C368.97 167.815 369.998 161.225 371.746 155.259C374.184 147.016 377.356 141.38 381.718 137.47C386.829 132.898 393.541 131.081 400.047 129.319C402.044 128.786 404.115 128.217 406.068 127.593C411.899 125.721 415.438 123.554 417.92 120.342C420.828 116.56 421.665 112.374 422.561 107.932C423.237 104.554 423.927 101.084 425.572 97.3573C426.556 95.1177 427.775 93.0799 429.185 91.2808C439.069 78.6689 457.485 71.3073 472.113 82.5608C482.658 90.6567 489.869 103.507 496.845 115.917C500.575 122.545 504.086 128.823 508.065 134.386C515.174 144.336 524.617 156.599 534.707 163.263C539.95 166.732 544.414 168.017 548.35 167.155C551.904 166.384 554.049 163.795 555.899 160.931V159.261H555.87Z" fill="white"/>
<path opacity="0.7" d="M548.013 184.191C551.875 182.851 554.019 179.161 555.87 175.214V173.047C553.843 177.563 551.846 181.731 547.778 183.144C543.871 184.503 539.495 183.438 534.442 179.858C526.761 174.443 518.126 163.63 508.771 147.713C505.598 142.298 502.734 136.515 499.709 130.383C492.762 116.303 485.595 101.726 474.331 92.4006C459.233 79.8987 438.995 86.1772 429.581 99.8906C428.157 101.965 426.982 104.315 426.115 106.885C424.647 111.254 424.265 115.532 423.898 119.662C423.442 124.858 423.002 129.759 420.402 134.128C418.17 137.892 414.645 140.59 408.976 142.922C406.817 143.803 404.482 144.592 402.235 145.363C395.832 147.53 389.208 149.769 384.215 154.763C379.78 159.205 376.739 165.484 374.669 174.516C373.303 180.537 372.598 187.018 371.937 193.296L371.643 195.958C370.072 210.314 365.769 228.507 354.225 233.629C341.051 239.485 328.377 223.036 321.504 207.193C311.179 183.328 300.987 173.396 276.813 189.202C275.168 190.286 273.494 191.497 271.82 192.819C251.655 208.754 233.782 212.407 212.09 205.082C208.639 203.907 204.938 202.402 200.796 200.419C195.465 197.886 190.339 195.004 185.375 192.232C172.422 184.962 160.188 178.096 145.032 177.215C134.971 176.627 126.321 179.987 117.935 183.218C114.88 184.393 111.723 185.623 108.521 186.651C89.047 192.892 65.6515 196.858 42.6673 197.812C40.6112 197.904 38.5257 197.959 36.4549 198.014C31.3881 198.161 26.1597 198.308 21.3426 198.84L20.197 198.969C13.0007 199.85 6.89113 200.97 -0.246483 202.732C-5.79795 204.091 -11.6725 205.174 -17.7233 206.239C-33.3644 209.011 -49.4166 212.756 -58.581 225.405C-65.6452 235.153 -66.9669 248.407 -68.3621 262.451C-69.5371 274.365 -70.7707 286.702 -75.7347 297.184C-77.7908 301.535 -80.3022 305.134 -83.4304 309.191C-85.1634 311.43 -86.7789 313.468 -88.2916 315.377C-90.1568 317.727 -91.9192 319.93 -93.4906 322.041C-97.0741 326.851 -99.1302 330.982 -100.349 335.865C-101.877 341.96 -101.744 348.972 -101.451 356.848C-100.981 369.423 -100.995 382.531 -104.182 393.142C-105.578 397.713 -107.501 401.678 -109.939 404.965C-113.89 411.28 -118.604 417.375 -123.539 423.341V424.846C-118.355 418.623 -113.405 412.253 -109.279 405.662C-106.782 402.303 -104.799 398.227 -103.375 393.527C-100.129 382.733 -100.114 369.497 -100.599 356.811C-100.893 349.046 -101.01 342.125 -99.5268 336.195C-98.3518 331.459 -96.3545 327.457 -92.8738 322.776C-91.317 320.683 -89.5547 318.48 -87.6895 316.13C-86.1621 314.221 -84.5466 312.165 -82.8136 309.925C-80.0672 306.363 -77.2181 302.417 -75.0004 297.717C-69.9336 287.051 -68.6999 274.604 -67.5103 262.58C-66.1298 248.719 -64.8374 235.63 -57.9495 226.121C-48.9761 213.747 -33.1 210.039 -17.6058 207.285C-11.555 206.22 -5.66577 205.137 -0.0849304 203.779C7.0233 202.035 13.1182 200.915 20.2852 200.034L21.4307 199.905C26.2185 199.373 31.4322 199.226 36.4843 199.079C38.5698 199.024 40.6552 198.969 42.7113 198.877C65.769 197.923 89.2233 193.939 108.756 187.679C111.973 186.651 115.145 185.421 118.2 184.227C126.894 180.868 135.074 177.692 144.988 178.261C159.982 179.142 172.143 185.971 185.023 193.186C190.002 195.977 195.142 198.859 200.488 201.411C204.673 203.393 208.389 204.917 211.87 206.092C233.826 213.509 251.89 209.8 272.29 193.7C273.949 192.397 275.609 191.185 277.224 190.139C300.767 174.736 310.68 184.411 320.755 207.689C327.775 223.918 340.831 240.697 354.519 234.639C366.474 229.333 370.894 210.755 372.495 196.105L372.789 193.443C373.464 187.201 374.155 180.758 375.506 174.81C377.518 166.016 380.47 159.921 384.758 155.607C389.605 150.742 396.155 148.539 402.47 146.41C404.732 145.639 407.067 144.849 409.255 143.968C413.191 142.353 418.096 139.856 421.107 134.808C423.839 130.218 424.294 125.17 424.764 119.827C425.131 115.77 425.498 111.566 426.923 107.344C427.745 104.884 428.862 102.626 430.242 100.643C439.421 87.2787 459.145 81.1471 473.861 93.3552C484.964 102.553 492.101 117.019 498.989 131.008C501.883 136.882 504.879 142.977 508.08 148.411C517.509 164.456 526.233 175.361 534.016 180.85C539.289 184.54 543.871 185.641 548.013 184.191Z" fill="white"/>
<path opacity="0.7" d="M533.371 198.308C538.599 202.218 543.431 203.191 547.705 201.172C551.92 199.189 554.035 194.233 555.871 189.092V186.43C555.827 186.559 555.782 186.687 555.738 186.816C553.712 192.617 551.788 198.088 547.411 200.144C543.328 202.071 538.878 201.154 533.826 197.353C522.87 189.166 512.737 169.706 508.889 161.702C506.48 156.69 504.174 151.311 501.942 146.098C495.128 130.163 488.078 113.696 476.167 103.085C462.186 90.6382 440.068 93.5754 430.654 109.161C429.274 111.456 428.201 114.026 427.497 116.835C426.263 121.663 426.219 126.602 426.175 131.393C426.116 137.543 426.057 143.362 423.575 148.576C421.446 153.055 417.936 156.323 412.164 159.187C409.829 160.344 407.303 161.353 404.85 162.345C398.55 164.878 392.043 167.503 387.241 172.827C382.85 177.729 380.045 184.466 378.429 194.031C377.43 199.979 377.034 206.312 376.652 212.425C376.564 213.766 376.491 215.087 376.402 216.409C375.756 226.212 372.804 249.564 359.234 254.686C345.12 260.064 333.063 241.156 327.027 223.33C320.946 205.413 314.426 195.536 306.51 192.25C299.578 189.386 291.427 191.497 281.602 198.73C280.015 199.905 278.341 201.264 276.623 202.787C255.988 221.182 237.748 226.359 215.659 220.136C211.988 219.108 208.169 217.731 203.984 215.932C198.094 213.417 192.484 210.424 187.05 207.542C174.156 200.695 161.966 194.214 146.868 193.792C136.911 193.517 127.82 196.068 119.023 198.528C116.746 199.171 114.47 199.795 112.164 200.401C96.7435 204.385 73.5977 209.708 50.6721 209.855C44.0045 209.892 37.1166 209.543 30.6252 209.158L29.509 209.103C27.1739 208.974 24.9268 208.809 22.7092 208.644C17.8773 208.295 13.3099 207.983 8.49272 207.946C3.35247 207.909 -2.66898 207.891 -8.77853 208.423C-21.262 209.488 -37.887 213.821 -46.1995 228.379C-52.0594 238.622 -52.4413 251.877 -52.8084 264.691C-53.1756 277.119 -53.5428 289.988 -58.7418 300.599C-61.0769 305.39 -64.1904 309.117 -66.6284 311.816C-69.3307 314.827 -72.033 317.452 -74.6325 319.985C-75.7927 321.105 -76.9235 322.206 -78.0103 323.308C-81.6526 326.961 -85.3682 331.147 -87.8503 337.058C-90.6847 343.759 -91.3309 351.396 -91.5953 358.647C-91.6687 360.667 -91.7275 362.723 -91.7862 364.815C-92.0653 374.729 -92.3443 384.973 -94.7235 394.078C-95.8984 398.521 -97.558 402.633 -99.6728 406.305C-105.797 417.87 -114.535 428.059 -123.465 437.807V439.239C-114.301 429.252 -105.268 418.825 -98.9679 406.91C-96.809 403.165 -95.1053 398.943 -93.9011 394.409C-91.4778 385.174 -91.1988 374.839 -90.9197 364.852C-90.861 362.759 -90.8022 360.703 -90.7288 358.702C-90.4644 351.579 -89.8329 344.071 -87.0719 337.572C-84.6486 331.844 -81.0211 327.751 -77.4523 324.171C-76.3655 323.069 -75.2346 321.968 -74.0744 320.848C-71.4602 318.296 -68.7579 315.671 -66.0262 312.642C-63.5442 309.888 -60.3866 306.088 -57.9781 301.168C-52.6469 290.3 -52.2797 277.303 -51.9126 264.727C-51.5307 251.491 -51.1636 238.989 -45.4652 229.003C-37.3436 214.794 -20.9829 210.553 -8.69041 209.506C-2.61022 208.992 3.38184 208.992 8.5074 209.029C13.3099 209.066 17.8627 209.396 22.6945 209.727C24.9122 209.892 27.1739 210.039 29.509 210.186L30.6252 210.241C37.1166 210.626 44.0045 210.975 50.7162 210.938C73.7005 210.792 96.9197 205.449 112.37 201.466C114.676 200.878 116.967 200.236 119.243 199.593C128.393 197.023 137.028 194.6 146.883 194.875C161.819 195.279 173.921 201.723 186.757 208.533C192.205 211.434 197.83 214.426 203.749 216.96C207.964 218.759 211.812 220.154 215.513 221.182C237.865 227.479 256.312 222.229 277.166 203.65C278.87 202.145 280.529 200.805 282.086 199.648C291.691 192.599 299.607 190.506 306.289 193.278C313.956 196.454 320.315 206.129 326.292 223.752C332.475 241.982 344.885 261.294 359.542 255.714C373.612 250.39 376.652 226.524 377.313 216.501C377.401 215.179 377.489 213.839 377.563 212.499C377.944 206.422 378.341 200.125 379.325 194.233C380.911 184.907 383.613 178.353 387.858 173.616C392.528 168.44 398.946 165.869 405.158 163.354C407.626 162.363 410.167 161.335 412.531 160.178C416.54 158.177 421.519 155.13 424.368 149.109C426.968 143.638 427.027 137.69 427.085 131.393C427.129 126.693 427.173 121.828 428.363 117.166C429.039 114.485 430.067 112.025 431.388 109.822C440.538 94.6769 462.083 91.8314 475.712 103.966C487.461 114.43 494.467 130.787 501.222 146.612C503.455 151.825 505.76 157.223 508.184 162.253C512.957 172.313 522.65 190.304 533.371 198.308Z" fill="white"/>
<path opacity="0.7" d="M508.198 176.224C510.107 181.088 525.777 219.695 541.991 219.677C543.783 219.677 545.604 219.2 547.396 218.153C552.022 215.455 554.034 208.974 555.885 202.531V199.336C555.694 199.979 555.517 200.64 555.326 201.282C553.388 208.093 551.552 214.537 547.043 217.162C533.047 225.35 516.54 194.967 508.976 175.728C507.302 171.469 505.686 167.044 504.115 162.749C497.491 144.648 490.633 125.922 477.988 113.825C468.838 105.068 454.739 102.406 443.71 107.344C435.838 110.869 430.565 117.79 428.862 126.84C427.878 132.091 428.157 137.653 428.421 143.032C428.773 150.192 429.126 156.948 426.747 163.079C423.207 172.166 415.541 175.728 407.419 179.491C401.236 182.355 394.862 185.329 390.266 190.947C381.85 201.246 381.542 216.942 381.248 232.124C381.219 233.739 381.189 235.336 381.145 236.934C380.94 244.846 379.104 271.061 364.227 275.816C349.364 280.571 337.85 259.257 332.519 239.54C326.541 217.437 319.036 204.991 309.593 201.484C301.545 198.492 292.058 202.31 281.366 212.829C256.516 237.282 235.706 242.533 207.111 231.555C200.693 229.095 194.628 226.029 188.768 223.055C176.005 216.611 163.948 210.498 149.056 210.498C148.909 210.498 148.762 210.498 148.615 210.498C133.679 210.626 119.228 213.527 105.261 216.354C84.0389 220.632 62.0827 225.074 38.7313 219.347C34.9422 218.41 31.109 217.29 27.3934 216.189C18.5228 213.564 9.34375 210.847 0.0766144 210.737C-11.8341 210.608 -27.0933 215.932 -33.9078 231.463C-38.6368 242.239 -38.0934 255.071 -37.5794 267.481C-37.036 280.295 -36.4926 293.531 -41.8678 304.124C-45.8625 312 -52.5008 317.011 -58.9335 321.858C-64.999 326.447 -71.2847 331.184 -75.4851 338.38C-81.3009 348.312 -82.1086 360.905 -82.887 373.095C-83.357 380.457 -83.8416 388.057 -85.4131 395.088C-90.524 417.981 -106.371 433.53 -121.674 448.583C-122.305 449.189 -122.908 449.813 -123.539 450.419V451.796C-122.746 451.007 -121.953 450.217 -121.145 449.428C-105.724 434.264 -89.775 418.605 -84.576 395.382C-82.9898 388.259 -82.4905 380.604 -82.0205 373.187C-81.2128 360.593 -80.4491 348.716 -74.7948 339.023C-70.6973 332.01 -64.4996 327.329 -58.4929 322.794C-51.9868 317.874 -45.2457 312.789 -41.1482 304.711C-35.6261 293.825 -36.1842 280.405 -36.7276 267.426C-37.2416 255.163 -37.7703 242.478 -33.1588 231.977C-26.6233 217.089 -12.0691 211.82 -0.437408 211.82C-0.275864 211.82 -0.0996246 211.82 0.0619202 211.82C9.24094 211.948 18.3612 214.647 27.2025 217.254C30.9181 218.355 34.766 219.493 38.5697 220.43C62.068 226.194 84.0977 221.733 105.408 217.437C119.345 214.629 133.752 211.71 148.63 211.599C148.777 211.599 148.909 211.599 149.056 211.599C163.772 211.599 175.756 217.658 188.445 224.083C194.319 227.057 200.414 230.123 206.862 232.601C235.397 243.561 257.133 238.09 281.909 213.692C292.351 203.412 301.589 199.667 309.343 202.531C318.508 205.927 325.822 218.153 331.696 239.908C337.145 260.046 348.982 281.801 364.432 276.881C379.897 271.942 381.777 245.103 381.997 236.989C382.041 235.41 382.071 233.794 382.1 232.179C382.394 217.217 382.687 201.741 390.853 191.736C395.318 186.265 401.618 183.346 407.698 180.519C415.982 176.664 423.81 173.029 427.496 163.556C429.978 157.186 429.611 149.953 429.258 142.977C428.994 137.672 428.715 132.201 429.669 127.097C431.3 118.414 436.366 111.768 443.959 108.372C454.739 103.544 468.5 106.151 477.43 114.706C489.913 126.638 496.713 145.235 503.292 163.208C504.893 167.503 506.523 171.946 508.198 176.224Z" fill="white"/>
</g>
</g>
</svg>
