<svg width="40" height="40" viewBox="0 0 40 40" fill="none" xmlns="http://www.w3.org/2000/svg">
<path d="M10.9999 25H28.9999C29.2547 25.0003 29.4999 25.0979 29.6852 25.2728C29.8706 25.4478 29.9821 25.687 29.997 25.9414C30.012 26.1958 29.9292 26.4464 29.7656 26.6418C29.602 26.8373 29.37 26.9629 29.1169 26.993L28.9999 27H10.9999C10.745 26.9997 10.4998 26.9021 10.3145 26.7272C10.1292 26.5522 10.0176 26.313 10.0027 26.0586C9.98776 25.8042 10.0705 25.5536 10.2341 25.3582C10.3977 25.1627 10.6298 25.0371 10.8829 25.007L10.9999 25H28.9999H10.9999ZM10.9999 19L28.9999 18.998C29.2547 18.9983 29.4999 19.0959 29.6852 19.2708C29.8706 19.4458 29.9821 19.685 29.997 19.9394C30.012 20.1938 29.9292 20.4444 29.7656 20.6398C29.602 20.8353 29.37 20.9609 29.1169 20.991L28.9999 20.998L10.9999 21C10.745 20.9997 10.4998 20.9021 10.3145 20.7272C10.1292 20.5522 10.0176 20.313 10.0027 20.0586C9.98776 19.8042 10.0705 19.5536 10.2341 19.3582C10.3977 19.1627 10.6298 19.0371 10.8829 19.007L10.9999 19L28.9999 18.998L10.9999 19ZM10.9999 13H28.9999C29.2547 13.0003 29.4999 13.0979 29.6852 13.2728C29.8706 13.4478 29.9821 13.687 29.997 13.9414C30.012 14.1958 29.9292 14.4464 29.7656 14.6418C29.602 14.8373 29.37 14.9629 29.1169 14.993L28.9999 15H10.9999C10.745 14.9997 10.4998 14.9021 10.3145 14.7272C10.1292 14.5522 10.0176 14.313 10.0027 14.0586C9.98776 13.8042 10.0705 13.5536 10.2341 13.3582C10.3977 13.1627 10.6298 13.0371 10.8829 13.007L10.9999 13H28.9999H10.9999Z" fill="#707991"/>
</svg>
