<svg width="115" height="115" viewBox="0 0 115 115" fill="none" xmlns="http://www.w3.org/2000/svg">
<path d="M21.8787 43.125L21.8069 43.6569C19.6455 44.3633 17.7629 45.735 16.4281 47.5758C15.0933 49.4167 14.3747 51.6324 14.375 53.9062V75.4688C14.375 78.3281 15.5109 81.0704 17.5328 83.0922C19.5546 85.1141 22.2969 86.25 25.1562 86.25H89.8438C92.7031 86.25 95.4454 85.1141 97.4672 83.0922C99.4891 81.0704 100.625 78.3281 100.625 75.4688V53.9062C100.625 51.6246 99.902 49.4016 98.5587 47.5572C97.2155 45.7129 95.3217 44.3422 93.15 43.6425L93.0853 43.125H97.0312C97.9844 43.125 98.8985 42.7464 99.5724 42.0724C100.246 41.3985 100.625 40.4844 100.625 39.5312C100.625 38.5781 100.246 37.664 99.5724 36.9901C98.8985 36.3161 97.9844 35.9375 97.0312 35.9375H92.1653L91.0153 26.9316C90.573 23.4633 88.8818 20.2751 86.2583 17.9638C83.6348 15.6525 80.2589 14.3766 76.7625 14.375H38.2303C34.736 14.3742 31.361 15.6463 28.7364 17.9533C26.1119 20.2604 24.4176 23.4444 23.9703 26.91L22.8059 35.9375H17.9688C17.0156 35.9375 16.1015 36.3161 15.4276 36.9901C14.7536 37.664 14.375 38.5781 14.375 39.5312C14.375 40.4844 14.7536 41.3985 15.4276 42.0724C16.1015 42.7464 17.0156 43.125 17.9688 43.125H21.8787ZM38.2303 21.5625H76.7553C78.5036 21.5623 80.192 22.1994 81.5044 23.3544C82.8168 24.5093 83.6633 26.1031 83.8853 27.8372L85.8403 43.125H29.1309L31.1003 27.83C31.324 26.0972 32.1711 24.5052 33.4834 23.3517C34.7956 22.1981 36.4831 21.5621 38.2303 21.5625ZM37.7344 70.0709C37.0274 70.0709 36.3274 69.9317 35.6742 69.6611C35.0211 69.3906 34.4276 68.9941 33.9277 68.4942C33.4278 67.9943 33.0313 67.4008 32.7607 66.7477C32.4902 66.0945 32.3509 65.3945 32.3509 64.6875C32.3509 63.9805 32.4902 63.2805 32.7607 62.6273C33.0313 61.9742 33.4278 61.3807 33.9277 60.8808C34.4276 60.3809 35.0211 59.9844 35.6742 59.7139C36.3274 59.4433 37.0274 59.3041 37.7344 59.3041C39.1622 59.3041 40.5315 59.8712 41.541 60.8808C42.5506 61.8904 43.1178 63.2597 43.1178 64.6875C43.1178 66.1153 42.5506 67.4846 41.541 68.4942C40.5315 69.5038 39.1622 70.0709 37.7344 70.0709ZM77.2513 70.0709C76.5443 70.0709 75.8442 69.9317 75.1911 69.6611C74.538 69.3906 73.9445 68.9941 73.4446 68.4942C72.9447 67.9943 72.5481 67.4008 72.2776 66.7477C72.0071 66.0945 71.8678 65.3945 71.8678 64.6875C71.8678 63.9805 72.0071 63.2805 72.2776 62.6273C72.5481 61.9742 72.9447 61.3807 73.4446 60.8808C73.9445 60.3809 74.538 59.9844 75.1911 59.7139C75.8442 59.4433 76.5443 59.3041 77.2513 59.3041C78.679 59.3041 80.0483 59.8712 81.0579 60.8808C82.0675 61.8904 82.6347 63.2597 82.6347 64.6875C82.6347 66.1153 82.0675 67.4846 81.0579 68.4942C80.0483 69.5038 78.679 70.0709 77.2513 70.0709ZM89.8222 93.4375H79.0409V95.2344C79.0409 96.6641 79.6089 98.0352 80.6198 99.0461C81.6308 100.057 83.0019 100.625 84.4316 100.625C85.8612 100.625 87.2324 100.057 88.2433 99.0461C89.2542 98.0352 89.8222 96.6641 89.8222 95.2344V93.4375ZM35.9375 93.4375H25.1562V95.2344C25.1562 96.6641 25.7242 98.0352 26.7351 99.0461C27.7461 100.057 29.1172 100.625 30.5469 100.625C31.9766 100.625 33.3477 100.057 34.3586 99.0461C35.3696 98.0352 35.9375 96.6641 35.9375 95.2344V93.4375Z" fill="white"/>
</svg>
