<svg width="32" height="32" viewBox="0 0 32 32" fill="none" xmlns="http://www.w3.org/2000/svg">
<path d="M17.3333 12H24.6667L17.3333 4.66667V12ZM8.00001 2.66667H18.6667L26.6667 10.6667V26.6667C26.6667 27.3739 26.3857 28.0522 25.8856 28.5523C25.3855 29.0524 24.7073 29.3333 24 29.3333H8.00001C7.29277 29.3333 6.61449 29.0524 6.11439 28.5523C5.61429 28.0522 5.33334 27.3739 5.33334 26.6667V5.33334C5.33334 3.85334 6.52001 2.66667 8.00001 2.66667ZM9.33334 26.6667H12V18.6667H9.33334V26.6667ZM14.6667 26.6667H17.3333V16H14.6667V26.6667ZM20 26.6667H22.6667V21.3333H20V26.6667Z" fill="white"/>
</svg>
