<svg width="32" height="82" viewBox="0 0 32 82" fill="none" xmlns="http://www.w3.org/2000/svg">
<path d="M12.3329 29.3334L11.7996 25.0667C11.5107 24.9556 11.2383 24.8222 10.9823 24.6667C10.7263 24.5111 10.4765 24.3445 10.2329 24.1667L6.26628 25.8334L2.59961 19.5L6.03294 16.9C6.01072 16.7445 5.99961 16.5942 5.99961 16.4494V15.5507C5.99961 15.4058 6.01072 15.2556 6.03294 15.1L2.59961 12.5L6.26628 6.16669L10.2329 7.83335C10.4774 7.65558 10.7329 7.48891 10.9996 7.33335C11.2663 7.1778 11.5329 7.04446 11.7996 6.93335L12.3329 2.66669H19.6663L20.1996 6.93335C20.4885 7.04446 20.7609 7.1778 21.0169 7.33335C21.2729 7.48891 21.5227 7.65558 21.7663 7.83335L25.7329 6.16669L29.3996 12.5L25.9663 15.1C25.9885 15.2556 25.9996 15.4058 25.9996 15.5507V16.4494C25.9996 16.5942 25.9774 16.7445 25.9329 16.9L29.3663 19.5L25.6996 25.8334L21.7663 24.1667C21.5218 24.3445 21.2663 24.5111 20.9996 24.6667C20.7329 24.8222 20.4663 24.9556 20.1996 25.0667L19.6663 29.3334H12.3329ZM16.0663 20.6667C17.3552 20.6667 18.4552 20.2111 19.3663 19.3C20.2774 18.3889 20.7329 17.2889 20.7329 16C20.7329 14.7111 20.2774 13.6111 19.3663 12.7C18.4552 11.7889 17.3552 11.3334 16.0663 11.3334C14.7552 11.3334 13.6494 11.7889 12.7489 12.7C11.8485 13.6111 11.3987 14.7111 11.3996 16C11.3996 17.2889 11.8494 18.3889 12.7489 19.3C13.6485 20.2111 14.7543 20.6667 16.0663 20.6667Z" fill="#438EFF"/>
<path d="M6.66667 56.6667H14.6667C15.4 56.6667 16 56.0667 16 55.3333C16 54.6 15.4 54 14.6667 54H6.66667C5.2 54 4 55.2 4 56.6667V75.3333C4 76.8 5.2 78 6.66667 78H14.6667C15.4 78 16 77.4 16 76.6667C16 75.9333 15.4 75.3333 14.6667 75.3333H6.66667V56.6667Z" fill="#438EFF"/>
<path d="M27.5333 65.5333L23.8133 61.8133C23.7206 61.7181 23.6016 61.6526 23.4714 61.6254C23.3413 61.5982 23.206 61.6104 23.0829 61.6605C22.9597 61.7107 22.8543 61.7964 22.7802 61.9067C22.7061 62.0171 22.6665 62.147 22.6667 62.28V64.6667H13.3333C12.6 64.6667 12 65.2667 12 66C12 66.7333 12.6 67.3333 13.3333 67.3333H22.6667V69.72C22.6667 70.32 23.3867 70.6133 23.8 70.1867L27.52 66.4667C27.7867 66.2133 27.7867 65.7867 27.5333 65.5333Z" fill="#438EFF"/>
</svg>
