<svg width="32" height="32" viewBox="0 0 32 32" fill="none" xmlns="http://www.w3.org/2000/svg">
<path d="M28 9.33334H24C24 7.13334 22.2 5.33334 20 5.33334H4C1.8 5.33334 0 7.13334 0 9.33334V18.6667C0 20.8667 1.8 22.6667 4 22.6667V26.6667L8 22.6667C8 24.8667 9.8 26.6667 12 26.6667H22.6667L26.6667 30.6667V26.6667H28C30.2 26.6667 32 24.8667 32 22.6667V13.3333C32 11.1333 30.2 9.33334 28 9.33334ZM4 20C3.27733 20 2.66667 19.3893 2.66667 18.6667V9.33334C2.66667 8.61068 3.27733 8.00001 4 8.00001H20C20.7227 8.00001 21.3333 8.61068 21.3333 9.33334V10.6667H12.6667C11.7828 10.6674 10.9354 11.0188 10.3104 11.6438C9.68546 12.2687 9.33404 13.1162 9.33333 14V20H4ZM29.3333 22.6667C29.3333 23.3893 28.7227 24 28 24H12C11.2773 24 10.6667 23.3893 10.6667 22.6667V14C10.6667 12.8973 11.564 12 12.6667 12H28C28.7227 12 29.3333 12.6107 29.3333 13.3333V22.6667Z" fill="#438EFF"/>
</svg>
