<svg width="14" height="14" viewBox="0 0 14 14" fill="none" xmlns="http://www.w3.org/2000/svg">
<path d="M4.958 9.67514L2.74542 7.46256C2.6354 7.3563 2.48805 7.2975 2.3351 7.29883C2.18215 7.30016 2.03585 7.36151 1.92769 7.46966C1.81954 7.57782 1.75819 7.72412 1.75686 7.87707C1.75553 8.03002 1.81433 8.17737 1.92058 8.28739L4.54558 10.9124C4.65498 11.0217 4.80332 11.0832 4.958 11.0832C5.11268 11.0832 5.26103 11.0217 5.37042 10.9124L11.7871 4.49572C11.8933 4.38571 11.9521 4.23835 11.9508 4.08541C11.9495 3.93246 11.8881 3.78615 11.78 3.678C11.6718 3.56984 11.5255 3.50849 11.3726 3.50716C11.2196 3.50583 11.0723 3.56463 10.9623 3.67089L4.958 9.67514Z" fill="#011627"/>
</svg>
