<svg width="32" height="32" viewBox="0 0 32 32" fill="none" xmlns="http://www.w3.org/2000/svg">
<path d="M6.088 12L6.068 12.148C5.46658 12.3446 4.94271 12.7263 4.57129 13.2385C4.19987 13.7507 3.99991 14.3673 4 15V21C4 21.7956 4.31607 22.5587 4.87868 23.1213C5.44129 23.6839 6.20435 24 7 24H25C25.7956 24 26.5587 23.6839 27.1213 23.1213C27.6839 22.5587 28 21.7956 28 21V15C28.0001 14.3651 27.7988 13.7465 27.425 13.2333C27.0513 12.7201 26.5243 12.3387 25.92 12.144L25.902 12H27C27.2652 12 27.5196 11.8946 27.7071 11.7071C27.8946 11.5196 28 11.2652 28 11C28 10.7348 27.8946 10.4804 27.7071 10.2929C27.5196 10.1054 27.2652 10 27 10H25.646L25.326 7.494C25.2029 6.52891 24.7323 5.64175 24.0023 4.99862C23.2723 4.35548 22.3329 4.00045 21.36 4H10.638C9.66566 3.99978 8.72653 4.35375 7.99622 4.9957C7.26592 5.63766 6.79446 6.52365 6.67 7.488L6.346 10H5C4.73478 10 4.48043 10.1054 4.29289 10.2929C4.10536 10.4804 4 10.7348 4 11C4 11.2652 4.10536 11.5196 4.29289 11.7071C4.48043 11.8946 4.73478 12 5 12H6.088ZM10.638 6H21.358C21.8445 5.99995 22.3143 6.17722 22.6795 6.4986C23.0447 6.81999 23.2802 7.26346 23.342 7.746L23.886 12H8.106L8.654 7.744C8.71623 7.26183 8.95196 6.81883 9.31711 6.49785C9.68226 6.17687 10.1518 5.99989 10.638 6ZM10.5 19.498C10.3033 19.498 10.1085 19.4593 9.92674 19.384C9.745 19.3087 9.57986 19.1983 9.44075 19.0592C9.30165 18.9201 9.19131 18.755 9.11603 18.5733C9.04075 18.3915 9.002 18.1967 9.002 18C9.002 17.8033 9.04075 17.6085 9.11603 17.4267C9.19131 17.245 9.30165 17.0799 9.44075 16.9408C9.57986 16.8017 9.745 16.6913 9.92674 16.616C10.1085 16.5407 10.3033 16.502 10.5 16.502C10.8973 16.502 11.2783 16.6598 11.5592 16.9408C11.8402 17.2217 11.998 17.6027 11.998 18C11.998 18.3973 11.8402 18.7783 11.5592 19.0592C11.2783 19.3402 10.8973 19.498 10.5 19.498ZM21.496 19.498C21.2993 19.498 21.1045 19.4593 20.9227 19.384C20.741 19.3087 20.5759 19.1983 20.4368 19.0592C20.2977 18.9201 20.1873 18.755 20.112 18.5733C20.0367 18.3915 19.998 18.1967 19.998 18C19.998 17.8033 20.0367 17.6085 20.112 17.4267C20.1873 17.245 20.2977 17.0799 20.4368 16.9408C20.5759 16.8017 20.741 16.6913 20.9227 16.616C21.1045 16.5407 21.2993 16.502 21.496 16.502C21.8933 16.502 22.2743 16.6598 22.5552 16.9408C22.8362 17.2217 22.994 17.6027 22.994 18C22.994 18.3973 22.8362 18.7783 22.5552 19.0592C22.2743 19.3402 21.8933 19.498 21.496 19.498ZM24.994 26H21.994V26.5C21.994 26.8978 22.152 27.2794 22.4333 27.5607C22.7146 27.842 23.0962 28 23.494 28C23.8918 28 24.2734 27.842 24.5547 27.5607C24.836 27.2794 24.994 26.8978 24.994 26.5V26ZM10 26H7V26.5C7 26.8978 7.15804 27.2794 7.43934 27.5607C7.72064 27.842 8.10218 28 8.5 28C8.89782 28 9.27936 27.842 9.56066 27.5607C9.84196 27.2794 10 26.8978 10 26.5V26Z" fill="#BBD1F3"/>
</svg>
