<svg width="32" height="32" viewBox="0 0 32 32" fill="none" xmlns="http://www.w3.org/2000/svg">
<path d="M17.3335 12H24.6668L17.3335 4.66667V12ZM8.00016 2.66667H18.6668L26.6668 10.6667V26.6667C26.6668 27.3739 26.3859 28.0522 25.8858 28.5523C25.3857 29.0524 24.7074 29.3333 24.0002 29.3333H8.00016C7.29292 29.3333 6.61464 29.0524 6.11454 28.5523C5.61445 28.0522 5.3335 27.3739 5.3335 26.6667V5.33334C5.3335 3.85334 6.52016 2.66667 8.00016 2.66667ZM9.3335 26.6667H12.0002V18.6667H9.3335V26.6667ZM14.6668 26.6667H17.3335V16H14.6668V26.6667ZM20.0002 26.6667H22.6668V21.3333H20.0002V26.6667Z" fill="#BBD1F3"/>
</svg>
