<svg width="51" height="50" viewBox="0 0 51 50" fill="none" xmlns="http://www.w3.org/2000/svg">
<mask id="mask0_29_1146" style="mask-type:luminance" maskUnits="userSpaceOnUse" x="0" y="0" width="51" height="50">
<path d="M50.0348 -7.62941e-05H0V50H50.0348V-7.62941e-05Z" fill="white"/>
</mask>
<g mask="url(#mask0_29_1146)">
<path d="M4.89723 21.9258C4.69401 21.1681 4.69398 20.3703 4.89714 19.6126C5.10031 18.8549 5.49949 18.164 6.05458 17.6093L17.6213 6.05064C18.1763 5.49594 18.8677 5.09703 19.626 4.89401C20.3842 4.69099 21.1825 4.69102 21.9408 4.89409L32.7643 7.79224C32.877 6.31048 33.3932 4.88774 34.2572 3.67814L21.2209 0.187886C20.2852 -0.062634 19.3 -0.0626288 18.3644 0.187902C17.4287 0.438435 16.5754 0.930667 15.8904 1.61513L1.61625 15.8794C0.931309 16.5639 0.438737 17.4165 0.188033 18.3516C-0.0626722 19.2866 -0.0626777 20.2712 0.188017 21.2062L3.81506 34.733C5.00075 33.8281 6.4124 33.2661 7.89592 33.1086L4.89723 21.9258Z" fill="#96C0FF"/>
<path d="M42.0394 16.5176L45.1382 28.0741C45.3415 28.832 45.3413 29.6297 45.1382 30.3872C44.9349 31.1451 44.5357 31.8359 43.9806 32.3906L32.4139 43.9495C31.8588 44.5042 31.1675 44.9029 30.4091 45.1061C29.6511 45.309 28.8525 45.309 28.0944 45.1061L16.9039 42.1095C16.7462 43.5921 16.1839 45.0028 15.2783 46.1875L28.8145 49.812C29.7501 50.0627 30.7354 50.0627 31.671 49.812C32.6069 49.5614 33.46 49.0694 34.145 48.3848L48.4192 34.1205C49.1043 33.4359 49.5966 32.5834 49.8474 31.6482C50.0982 30.7133 50.0982 29.7287 49.8474 28.7937L46.0836 14.7605C44.923 15.7072 43.5235 16.3152 42.0394 16.5176Z" fill="#96C0FF"/>
<path d="M4.14063 36.5985C3.2239 37.5145 2.59959 38.6819 2.34667 39.9524C2.09374 41.2231 2.22354 42.5402 2.71968 43.7372C3.21578 44.9339 4.05595 45.957 5.13388 46.6768C6.21184 47.3964 7.47915 47.7808 8.77561 47.7808C10.072 47.7808 11.3394 47.3964 12.4173 46.6768C13.4953 45.957 14.3354 44.9339 14.8315 43.7372C15.3277 42.5402 15.4575 41.2231 15.2045 39.9524C14.9516 38.6819 14.3273 37.5145 13.4106 36.5985C12.1803 35.372 10.5135 34.6831 8.77561 34.6831C7.03776 34.6831 5.37086 35.372 4.14063 36.5985Z" fill="#4F80E1"/>
<path d="M36.2851 3.79991C35.3685 4.71599 34.744 5.88314 34.4913 7.1538C34.2383 8.42443 34.3681 9.74149 34.8642 10.9384C35.3604 12.1353 36.2005 13.1584 37.2783 13.8781C38.3564 14.5979 39.6237 14.9821 40.92 14.9821C42.2166 14.9821 43.4838 14.5979 44.5619 13.8781C45.6398 13.1584 46.4798 12.1353 46.976 10.9384C47.4722 9.74149 47.6019 8.42443 47.3489 7.1538C47.0962 5.88314 46.4717 4.71599 45.5551 3.79991C44.325 2.5733 42.6579 1.88443 40.92 1.88443C39.1823 1.88443 37.5152 2.5733 36.2851 3.79991Z" fill="#4F80E1"/>
<path d="M28.8649 42.3634C28.6017 42.3634 28.3397 42.3289 28.0854 42.2608L17.8419 39.5178C17.5003 37.6951 16.6154 36.0181 15.3033 34.7069C13.9911 33.3958 12.313 32.5113 10.489 32.1701L7.74435 21.9345C7.60829 21.4239 7.60867 20.8866 7.74552 20.3763C7.88237 19.8659 8.15086 19.4004 8.52415 19.0263L19.038 8.51942C19.412 8.14566 19.8779 7.87689 20.3888 7.74008C20.8997 7.60329 21.4376 7.60332 21.9485 7.74016L31.9049 10.4061C32.2998 12.2176 33.233 13.8675 34.5822 15.14C35.9315 16.4124 37.6338 17.248 39.4662 17.5372L42.289 28.0671C42.425 28.5778 42.4247 29.1151 42.2877 29.6253C42.1509 30.1358 41.8824 30.6012 41.509 30.9755L30.9951 41.4821C30.7161 41.7623 30.3838 41.9847 30.0182 42.1358C29.6526 42.2872 29.2607 42.3645 28.8649 42.3634Z" fill="#4F80E1"/>
</g>
</svg>
