<svg width="111" height="107" viewBox="0 0 111 107" fill="none" xmlns="http://www.w3.org/2000/svg">
<path d="M48.5625 24.5208C48.5625 23.9296 48.8061 23.3626 49.2398 22.9446C49.6735 22.5265 50.2617 22.2917 50.875 22.2917H60.125C60.7383 22.2917 61.3265 22.5265 61.7602 22.9446C62.1939 23.3626 62.4375 23.9296 62.4375 24.5208C62.4375 25.112 62.1939 25.679 61.7602 26.0971C61.3265 26.5151 60.7383 26.75 60.125 26.75H50.875C50.2617 26.75 49.6735 26.5151 49.2398 26.0971C48.8061 25.679 48.5625 25.112 48.5625 24.5208Z" fill="#F8F8F8"/>
<path fill-rule="evenodd" clip-rule="evenodd" d="M77.1542 41.2842C76.3148 41.9195 75.2256 42.4277 73.9121 42.8401C74.1634 45.3166 73.8742 47.8164 73.0633 50.1787C72.2524 52.541 70.9375 54.7136 69.2034 56.5568C67.4692 58.3999 65.3541 59.8729 62.9941 60.8809C60.634 61.8888 58.0813 62.4096 55.4999 62.4096C52.9186 62.4096 50.3659 61.8888 48.0058 60.8809C45.6458 59.8729 43.5307 58.3999 41.7965 56.5568C40.0623 54.7136 38.7475 52.541 37.9366 50.1787C37.1256 47.8164 36.8365 45.3166 37.0878 42.8401C35.7743 42.4277 34.6851 41.9195 33.848 41.2842C32.7611 40.4594 32.0327 39.3582 31.9471 38.034C31.8662 36.8058 32.3703 35.7625 32.8744 35.0269C33.3721 34.3301 33.963 33.6998 34.6319 33.1522C34.9557 32.878 35.2748 32.635 35.5708 32.4232C35.4829 31.9663 35.3858 31.4134 35.2887 30.7736C34.879 27.9637 34.6781 25.1292 34.6874 22.2917C34.6874 21.5917 34.9973 21.0701 35.1407 20.8494C35.3211 20.5707 35.5338 20.3322 35.7281 20.1405C36.1143 19.7504 36.6138 19.3536 37.1618 18.9724C38.2718 18.1967 39.7981 17.3251 41.6111 16.5092C45.2255 14.8819 50.1904 13.375 55.4999 13.375C60.8118 13.375 65.7744 14.8841 69.3888 16.5092C70.9475 17.1964 72.4369 18.021 73.8381 18.9724C74.3861 19.3536 74.8856 19.7526 75.2718 20.1405C75.4661 20.3322 75.6788 20.5707 75.8592 20.8494C76.0026 21.0701 76.3124 21.5917 76.3124 22.2917C76.3124 25.8628 76.0118 28.7563 75.7112 30.7736C75.6141 31.4134 75.5169 31.9663 75.4291 32.4232C75.7251 32.635 76.0465 32.878 76.3703 33.1522C76.9484 33.6404 77.6098 34.2757 78.1254 35.0269C78.6319 35.7625 79.1337 36.8058 79.0551 38.0363C78.9695 39.3582 78.2411 40.4594 77.1542 41.2842ZM39.3171 23.0005C39.3518 26.0055 39.6108 28.4352 39.8674 30.1339C39.9276 30.5351 39.9877 30.8918 40.0432 31.2083H70.9567C71.0145 30.8918 71.0723 30.5329 71.1324 30.1339C71.3868 28.4352 71.6481 26.0055 71.6828 23.0005C71.5028 22.8539 71.3169 22.7141 71.1255 22.5815C70.2907 21.9996 69.0234 21.2663 67.4324 20.5507C64.2343 19.1106 59.9492 17.8333 55.4999 17.8333C51.0507 17.8333 46.7656 19.1106 43.5674 20.5507C41.9764 21.2663 40.7092 21.9996 39.8767 22.5792C39.6844 22.7132 39.4977 22.8545 39.3171 23.0028V23.0005ZM38.8222 35.6667L38.8153 35.6711C38.4161 35.9275 38.0338 36.2074 37.6706 36.5093C37.2589 36.857 36.9306 37.1959 36.7317 37.4901C36.6844 37.5563 36.6419 37.6256 36.6045 37.6974C36.6373 37.7262 36.6712 37.7538 36.7063 37.7799C37.0531 38.043 37.7978 38.4286 39.25 38.8098C39.5368 38.8856 39.8443 38.9569 40.1727 39.0282L40.1935 39.0327C41.3544 39.2801 42.7835 39.5008 44.5248 39.6747C46.9923 39.9221 50.0979 40.0849 53.9783 40.1205L55.4999 40.125C62.9624 40.125 67.7886 39.6769 70.8087 39.0327L70.8272 39.0282C71.1579 38.9569 71.4654 38.8856 71.7522 38.8098C73.2021 38.4308 73.9491 38.043 74.2936 37.7799C74.3287 37.7538 74.3626 37.7262 74.3954 37.6974C74.3587 37.6257 74.317 37.5564 74.2705 37.4901C74.0015 37.1258 73.6852 36.7961 73.3293 36.5093C72.9668 36.2074 72.5853 35.9275 72.1869 35.6711L72.1777 35.6667H38.8222ZM54.8709 44.5833C60.9806 44.5833 65.7166 44.2712 69.3472 43.7273C69.4665 45.5448 69.1996 47.3666 68.5627 49.0812C67.9259 50.7957 66.9325 52.3667 65.6435 53.6981C64.3545 55.0295 62.797 56.093 61.0665 56.8237C59.336 57.5543 57.469 57.9366 55.5798 57.9471C53.6907 57.9575 51.8192 57.596 50.0801 56.8847C48.341 56.1733 46.7709 55.1271 45.4661 53.8101C44.1612 52.4932 43.1492 50.9332 42.4918 49.2259C41.8345 47.5186 41.5458 45.6998 41.6434 43.8811C45.0266 44.3314 49.3626 44.5833 54.8709 44.5833ZM37.1803 86.6633C37.0598 87.4927 36.9995 88.3292 36.9999 89.1667V91.3958C37.0002 91.8859 36.8329 92.3624 36.524 92.7515C36.2151 93.1407 35.7818 93.421 35.291 93.5489C34.8003 93.6768 34.2795 93.6452 33.8092 93.4591C33.339 93.273 32.9454 92.9427 32.6894 92.5193C31.1309 93.3343 29.3071 93.541 27.595 93.0967L23.1273 91.942C21.3507 91.4823 19.8362 90.3613 18.9169 88.8255C17.9976 87.2896 17.7486 85.4648 18.2248 83.752L20.0193 77.2919C20.4956 75.5789 21.6583 74.1185 23.2516 73.2319C24.8449 72.3452 26.7383 72.1049 28.5154 72.5638L32.9831 73.7163C34.5371 74.1176 35.8275 74.9981 36.7248 76.1483C38.8655 73.2759 41.6853 70.9365 44.9508 69.3239C48.2162 67.7112 51.8332 66.8718 55.5023 66.875C59.1693 66.8727 62.7842 67.7121 66.0479 69.3239C69.3116 70.9357 72.1302 73.2735 74.2705 76.1439C75.2 74.9556 76.5157 74.1017 78.0075 73.7185L82.4753 72.5661C84.252 72.1071 86.1451 72.3471 87.7384 73.2333C89.3316 74.1195 90.4945 75.5794 90.9714 77.2919L92.7682 83.7542C93.0039 84.6026 93.0639 85.4874 92.9449 86.3581C92.8258 87.2289 92.53 88.0684 92.0743 88.8289C91.6186 89.5895 91.012 90.256 90.2891 90.7905C89.5662 91.3251 88.7412 91.7171 87.8611 91.9442L83.3956 93.0967C81.6865 93.5413 79.8657 93.337 78.3081 92.526C78.0514 92.9488 77.6573 93.2783 77.1868 93.4635C76.7163 93.6488 76.1956 93.6794 75.7052 93.5508C75.2148 93.4221 74.782 93.1413 74.4738 92.7518C74.1656 92.3623 73.999 91.8857 73.9999 91.3958V89.1667C74.0003 88.3292 73.9401 87.4927 73.8196 86.6633L61.7853 89.773C61.2267 90.9256 60.3386 91.9007 59.2253 92.5838C58.112 93.267 56.8197 93.6298 55.4999 93.6298C54.1802 93.6298 52.8879 93.267 51.7746 92.5838C50.6613 91.9007 49.7732 90.9256 49.2146 89.773L37.1803 86.6633ZM48.8399 85.0583C49.1503 84.0421 49.7061 83.1112 50.4618 82.342C51.2175 81.5729 52.1516 80.9873 53.1874 80.6334V71.4715C49.9438 71.8668 46.8665 73.0827 44.2683 74.9958C41.6701 76.9088 39.6434 79.4507 38.3944 82.3633L48.8399 85.0583ZM72.6055 82.361C71.3561 79.4489 69.3294 76.9074 66.7311 74.9948C64.1329 73.0822 61.0558 71.8666 57.8124 71.4715V80.6312C59.9029 81.3445 61.5356 82.9941 62.1599 85.0605L72.6055 82.3633V82.361ZM77.5704 80.756C77.4918 80.4732 77.4716 80.1783 77.5112 79.888C77.5508 79.5977 77.6493 79.3178 77.8011 79.0642C77.9529 78.8106 78.1551 78.5884 78.396 78.4101C78.637 78.2318 78.912 78.1011 79.2054 78.0253L83.6731 76.8706C84.2653 76.7181 84.896 76.7984 85.4268 77.0939C85.9575 77.3894 86.3448 77.876 86.5036 78.4466L88.3004 84.9067C88.3791 85.1895 88.3993 85.4845 88.3597 85.7748C88.3201 86.065 88.2216 86.345 88.0698 86.5986C87.9179 86.8521 87.7158 87.0744 87.4748 87.2527C87.2339 87.4309 86.9589 87.5617 86.6655 87.6375L82.1978 88.7922C81.9042 88.868 81.5981 88.8873 81.2969 88.849C80.9956 88.8107 80.7051 88.7156 80.442 88.569C80.179 88.4224 79.9484 88.2273 79.7636 87.9948C79.5788 87.7623 79.4433 87.4969 79.3649 87.2139L77.5704 80.756ZM27.3198 76.8706C27.0263 76.7944 26.7201 76.7747 26.4187 76.8127C26.1173 76.8507 25.8266 76.9456 25.5633 77.092C25.3 77.2384 25.0692 77.4334 24.8841 77.6658C24.699 77.8982 24.5633 78.1636 24.4847 78.4466L22.6902 84.9045C22.6115 85.1873 22.5914 85.4822 22.631 85.7725C22.6705 86.0628 22.769 86.3428 22.9209 86.5963C23.0727 86.8499 23.2749 87.0722 23.5158 87.2504C23.7567 87.4287 24.0318 87.5594 24.3251 87.6352L28.7929 88.7899C29.0862 88.8658 29.3922 88.8852 29.6934 88.847C29.9945 88.8089 30.2849 88.7139 30.548 88.5676C30.811 88.4212 31.0416 88.2264 31.2265 87.9941C31.4114 87.7618 31.5471 87.4967 31.6257 87.2139L33.4202 80.7538C33.4992 80.4709 33.5196 80.1757 33.4802 79.8851C33.4408 79.5946 33.3424 79.3144 33.1905 79.0606C33.0387 78.8067 32.8364 78.5843 32.5953 78.4059C32.3541 78.2274 32.0789 78.0966 31.7853 78.0208L27.3175 76.8684L27.3198 76.8706ZM57.8124 86.9375C57.8124 87.5287 57.5688 88.0957 57.1351 88.5138C56.7015 88.9318 56.1133 89.1667 55.4999 89.1667C54.8866 89.1667 54.2984 88.9318 53.8648 88.5138C53.4311 88.0957 53.1874 87.5287 53.1874 86.9375C53.1874 86.3463 53.4311 85.7793 53.8648 85.3612C54.2984 84.9432 54.8866 84.7083 55.4999 84.7083C56.1133 84.7083 56.7015 84.9432 57.1351 85.3612C57.5688 85.7793 57.8124 86.3463 57.8124 86.9375Z" fill="#F8F8F8"/>
</svg>
