<svg width="28" height="32" viewBox="0 0 28 32" fill="none" xmlns="http://www.w3.org/2000/svg">
<path fill-rule="evenodd" clip-rule="evenodd" d="M5.97446 3.11068C5.97446 2.7214 9.98812 0 13.9733 0C17.9586 0 21.9722 2.72229 21.9722 3.11068C21.9722 4.49715 21.8247 5.31837 21.7003 5.76542C21.6176 6.05871 21.343 6.22136 21.0381 6.22136H6.90855C6.60371 6.22136 6.32908 6.05871 6.24642 5.76542C6.122 5.31837 5.97446 4.49715 5.97446 3.11068ZM12.6402 2.6663C12.4045 2.6663 12.1784 2.75993 12.0117 2.92661C11.8451 3.09328 11.7514 3.31935 11.7514 3.55506C11.7514 3.79078 11.8451 4.01684 12.0117 4.18351C12.1784 4.35019 12.4045 4.44383 12.6402 4.44383H15.3065C15.5422 4.44383 15.7683 4.35019 15.9349 4.18351C16.1016 4.01684 16.1953 3.79078 16.1953 3.55506C16.1953 3.31935 16.1016 3.09328 15.9349 2.92661C15.7683 2.75993 15.5422 2.6663 15.3065 2.6663H12.6402ZM6.897 11.7477C3.93741 10.8323 4.68397 9.19694 5.81271 7.99889H22.3811C23.284 9.1525 23.7684 10.7087 21.039 11.6402C21.1506 12.6303 21.0528 13.6328 20.752 14.5826C20.4512 15.5325 19.9542 16.4086 19.293 17.154C18.6319 17.8995 17.8215 18.4976 16.9144 18.9097C16.0072 19.3218 15.0236 19.5386 14.0272 19.5462C13.0309 19.5537 12.0441 19.3517 11.1308 18.9533C10.2176 18.555 9.39823 17.9691 8.72594 17.2337C8.05365 16.4983 7.54343 15.6299 7.22835 14.6846C6.91328 13.7394 6.80039 12.7385 6.897 11.7468V11.7477ZM13.7316 12.4427C16.0797 12.4427 17.8999 12.3183 19.2953 12.1014C19.3411 12.8261 19.2385 13.5524 18.9938 14.236C18.749 14.9196 18.3672 15.5459 17.8718 16.0768C17.3764 16.6076 16.7778 17.0316 16.1127 17.3229C15.4477 17.6142 14.7301 17.7666 14.004 17.7708C13.278 17.775 12.5587 17.6308 11.8903 17.3472C11.2219 17.0636 10.6185 16.6465 10.117 16.1214C9.61553 15.5964 9.22656 14.9744 8.97393 14.2937C8.7213 13.613 8.61035 12.8879 8.64787 12.1628C9.94813 12.3423 11.6146 12.4427 13.7316 12.4427ZM21.4541 25.4187C20.6502 24.1645 19.5436 23.1326 18.2364 22.4182C16.9291 21.7037 15.4631 21.3297 13.9733 21.3304C12.483 21.3294 11.0163 21.7035 9.70854 22.4183C8.40076 23.1331 7.2939 24.1655 6.48994 25.4205C6.19157 24.9609 5.73333 24.6284 5.2039 24.4873L3.48681 24.0278C2.91767 23.8752 2.31124 23.9549 1.80089 24.2494C1.29054 24.5439 0.918073 25.0291 0.765408 25.5982L0.0757267 28.1739C0.000192351 28.4557 -0.0190801 28.7497 0.0190101 29.039C0.0571002 29.3283 0.151807 29.6073 0.297722 29.86C0.443637 30.1127 0.637902 30.3342 0.869423 30.5118C1.10094 30.6895 1.36519 30.8198 1.64706 30.8953L3.36327 31.3556C3.65194 31.4334 3.95337 31.4519 4.24939 31.4101C4.54541 31.3682 4.82989 31.2669 5.0857 31.1121C5.0864 31.3478 5.18072 31.5736 5.34789 31.7398C5.51507 31.906 5.74141 31.9989 5.97713 31.9982C6.21284 31.9975 6.43862 31.9032 6.6048 31.736C6.77097 31.5688 6.86393 31.3425 6.86323 31.1068V30.218C6.86323 29.8794 6.88722 29.5461 6.93255 29.2199L11.5577 30.4598C11.7724 30.9193 12.1137 31.3081 12.5416 31.5804C12.9694 31.8528 13.4661 31.9975 13.9733 31.9975C14.4806 31.9975 14.9772 31.8528 15.4051 31.5804C15.833 31.3081 16.1743 30.9193 16.389 30.4598L21.0141 29.2199C21.0595 29.5461 21.0835 29.8794 21.0835 30.218V31.1068C21.0823 31.3425 21.1748 31.569 21.3406 31.7365C21.5065 31.904 21.7321 31.9988 21.9678 32C22.2035 32.0012 22.43 31.9087 22.5975 31.7428C22.7651 31.577 22.8598 31.3514 22.861 31.1157C23.3587 31.4143 23.9737 31.5183 24.579 31.3556L26.2961 30.8961C26.578 30.8206 26.8422 30.6904 27.0737 30.5127C27.3052 30.3351 27.4995 30.1136 27.6454 29.8609C27.7913 29.6082 27.886 29.3292 27.9241 29.0399C27.9622 28.7506 27.9429 28.4566 27.8674 28.1747L27.1768 25.5991C27.0242 25.03 26.6517 24.5448 26.1414 24.2503C25.631 23.9558 25.0246 23.8761 24.4554 24.0287L22.7383 24.4881C22.2101 24.6288 21.7527 24.9608 21.4541 25.4187ZM7.39915 27.5046C7.87925 26.3435 8.65817 25.3302 9.65677 24.5676C10.6554 23.805 11.838 23.3204 13.0846 23.163V26.8149C12.6863 26.9562 12.3272 27.1899 12.0367 27.4969C11.7463 27.8039 11.5327 28.1754 11.4137 28.5809L7.39915 27.5055V27.5046ZM20.5475 27.5046C20.0674 26.3435 19.2884 25.3303 18.2898 24.5677C17.2913 23.8052 16.1086 23.3205 14.8621 23.163V26.8149C15.6656 27.0993 16.293 27.757 16.533 28.5809L20.5475 27.5055V27.5046ZM13.9733 30.218C14.2091 30.218 14.4351 30.1244 14.6018 29.9577C14.7685 29.791 14.8621 29.565 14.8621 29.3292C14.8621 29.0935 14.7685 28.8675 14.6018 28.7008C14.4351 28.5341 14.2091 28.4405 13.9733 28.4405C13.7376 28.4405 13.5116 28.5341 13.3449 28.7008C13.1782 28.8675 13.0846 29.0935 13.0846 29.3292C13.0846 29.565 13.1782 29.791 13.3449 29.9577C13.5116 30.1244 13.7376 30.218 13.9733 30.218Z" fill="#4F80E1"/>
</svg>
